%
M48
M71
T01C0.200
T02C0.800
T03C0.813
T04C1.016
T05C1.200
T06C1.300
T07C1.778
T08C3.200
T09C3.302
%
T01
X15265Y41935
T02
X19075Y41300
X19075Y38760
X19075Y36220
X19075Y33680
X19075Y31140
X19075Y28600
X19075Y26060
X19075Y23520
X19075Y20980
X19075Y18440
X19075Y15900
X19075Y13360
X34315Y13360
X34315Y15900
X34315Y18440
X34315Y20980
X34315Y23520
X34315Y26060
X34315Y28600
X34315Y31140
X34315Y33680
X34315Y36220
X34315Y38760
X34315Y41300
X34315Y43840
X34315Y46380
X34315Y48920
X19075Y48920
X19075Y46380
X19075Y43840
T03
X15265Y48285
X15265Y50825
X12090Y41935
X12090Y39395
X12090Y36855
X13995Y36855
X15900Y34950
X16535Y36855
X13360Y33998
X11455Y33680
X13360Y31458
X12725Y29235
X10185Y29235
X7645Y29235
X5740Y33045
X3835Y33045
X3835Y35585
X5740Y35585
X7645Y36855
X10185Y36855
X8915Y33680
X5740Y38760
X3200Y38760
X4470Y41935
X5740Y43840
X3835Y44475
X3835Y47015
X5740Y46380
X15900Y32410
X15265Y29235
X15265Y21615
X12725Y21615
X10185Y21615
X7645Y21615
X6375Y18440
X3835Y18440
X5740Y14630
X5740Y12090
X10185Y10820
X10185Y13360
X10185Y15900
X10185Y18440
X13360Y17805
X13360Y14630
X15900Y14630
X15900Y17805
X3835Y22250
X3835Y29870
X22250Y50190
X24790Y50190
X24155Y54000
X24155Y56540
X27965Y56540
X30505Y56540
X34950Y56540
X37490Y56540
X38125Y49555
X38125Y47015
X31140Y50190
X28600Y50190
X38125Y23520
X38125Y20980
X38125Y18440
X31775Y19710
X29235Y19710
T04
X29235Y45745
X26695Y45745
X24155Y45745
T05
X20345Y54000
X20345Y56540
X15900Y56540
X15900Y54000
X11455Y50190
X8915Y50190
X6375Y50190
X3835Y50190
X38125Y43840
X38125Y41300
X38125Y38760
X38125Y36220
X38125Y33680
X38125Y31140
X38125Y28600
X38125Y26060
X38125Y15265
X38125Y12725
X38125Y10185
X38125Y7645
X38125Y5105
X38125Y2565
T06
X6354Y5130
X11434Y5130
X16514Y5130
X21594Y5130
X26674Y5130
X31754Y5130
X10799Y56565
X5719Y56565
T07
X19075Y51460
X34315Y51460
X34315Y10820
X19075Y10820
T08
X26695Y30759
T09
X26695Y30759
M30
