G75*
%MOIN*%
%OFA0B0*%
%FSLAX25Y25*%
%IPPOS*%
%LPD*%
%AMOC8*
5,1,8,0,0,1.08239X$1,22.5*
%
%ADD10C,0.00000*%
D10*
X0002600Y0002600D02*
X0002600Y0238820D01*
X0160080Y0238820D01*
X0160080Y0002600D01*
X0002600Y0002600D01*
X0071600Y0042600D02*
X0071602Y0042718D01*
X0071608Y0042836D01*
X0071618Y0042954D01*
X0071632Y0043071D01*
X0071650Y0043188D01*
X0071672Y0043305D01*
X0071697Y0043420D01*
X0071727Y0043534D01*
X0071761Y0043648D01*
X0071798Y0043760D01*
X0071839Y0043871D01*
X0071884Y0043980D01*
X0071932Y0044088D01*
X0071984Y0044194D01*
X0072040Y0044299D01*
X0072099Y0044401D01*
X0072161Y0044501D01*
X0072227Y0044599D01*
X0072296Y0044695D01*
X0072369Y0044789D01*
X0072444Y0044880D01*
X0072523Y0044968D01*
X0072604Y0045054D01*
X0072689Y0045137D01*
X0072776Y0045217D01*
X0072865Y0045294D01*
X0072958Y0045368D01*
X0073052Y0045438D01*
X0073149Y0045506D01*
X0073249Y0045570D01*
X0073350Y0045631D01*
X0073453Y0045688D01*
X0073559Y0045742D01*
X0073666Y0045793D01*
X0073774Y0045839D01*
X0073884Y0045882D01*
X0073996Y0045921D01*
X0074109Y0045957D01*
X0074223Y0045988D01*
X0074338Y0046016D01*
X0074453Y0046040D01*
X0074570Y0046060D01*
X0074687Y0046076D01*
X0074805Y0046088D01*
X0074923Y0046096D01*
X0075041Y0046100D01*
X0075159Y0046100D01*
X0075277Y0046096D01*
X0075395Y0046088D01*
X0075513Y0046076D01*
X0075630Y0046060D01*
X0075747Y0046040D01*
X0075862Y0046016D01*
X0075977Y0045988D01*
X0076091Y0045957D01*
X0076204Y0045921D01*
X0076316Y0045882D01*
X0076426Y0045839D01*
X0076534Y0045793D01*
X0076641Y0045742D01*
X0076747Y0045688D01*
X0076850Y0045631D01*
X0076951Y0045570D01*
X0077051Y0045506D01*
X0077148Y0045438D01*
X0077242Y0045368D01*
X0077335Y0045294D01*
X0077424Y0045217D01*
X0077511Y0045137D01*
X0077596Y0045054D01*
X0077677Y0044968D01*
X0077756Y0044880D01*
X0077831Y0044789D01*
X0077904Y0044695D01*
X0077973Y0044599D01*
X0078039Y0044501D01*
X0078101Y0044401D01*
X0078160Y0044299D01*
X0078216Y0044194D01*
X0078268Y0044088D01*
X0078316Y0043980D01*
X0078361Y0043871D01*
X0078402Y0043760D01*
X0078439Y0043648D01*
X0078473Y0043534D01*
X0078503Y0043420D01*
X0078528Y0043305D01*
X0078550Y0043188D01*
X0078568Y0043071D01*
X0078582Y0042954D01*
X0078592Y0042836D01*
X0078598Y0042718D01*
X0078600Y0042600D01*
X0078598Y0042482D01*
X0078592Y0042364D01*
X0078582Y0042246D01*
X0078568Y0042129D01*
X0078550Y0042012D01*
X0078528Y0041895D01*
X0078503Y0041780D01*
X0078473Y0041666D01*
X0078439Y0041552D01*
X0078402Y0041440D01*
X0078361Y0041329D01*
X0078316Y0041220D01*
X0078268Y0041112D01*
X0078216Y0041006D01*
X0078160Y0040901D01*
X0078101Y0040799D01*
X0078039Y0040699D01*
X0077973Y0040601D01*
X0077904Y0040505D01*
X0077831Y0040411D01*
X0077756Y0040320D01*
X0077677Y0040232D01*
X0077596Y0040146D01*
X0077511Y0040063D01*
X0077424Y0039983D01*
X0077335Y0039906D01*
X0077242Y0039832D01*
X0077148Y0039762D01*
X0077051Y0039694D01*
X0076951Y0039630D01*
X0076850Y0039569D01*
X0076747Y0039512D01*
X0076641Y0039458D01*
X0076534Y0039407D01*
X0076426Y0039361D01*
X0076316Y0039318D01*
X0076204Y0039279D01*
X0076091Y0039243D01*
X0075977Y0039212D01*
X0075862Y0039184D01*
X0075747Y0039160D01*
X0075630Y0039140D01*
X0075513Y0039124D01*
X0075395Y0039112D01*
X0075277Y0039104D01*
X0075159Y0039100D01*
X0075041Y0039100D01*
X0074923Y0039104D01*
X0074805Y0039112D01*
X0074687Y0039124D01*
X0074570Y0039140D01*
X0074453Y0039160D01*
X0074338Y0039184D01*
X0074223Y0039212D01*
X0074109Y0039243D01*
X0073996Y0039279D01*
X0073884Y0039318D01*
X0073774Y0039361D01*
X0073666Y0039407D01*
X0073559Y0039458D01*
X0073453Y0039512D01*
X0073350Y0039569D01*
X0073249Y0039630D01*
X0073149Y0039694D01*
X0073052Y0039762D01*
X0072958Y0039832D01*
X0072865Y0039906D01*
X0072776Y0039983D01*
X0072689Y0040063D01*
X0072604Y0040146D01*
X0072523Y0040232D01*
X0072444Y0040320D01*
X0072369Y0040411D01*
X0072296Y0040505D01*
X0072227Y0040601D01*
X0072161Y0040699D01*
X0072099Y0040799D01*
X0072040Y0040901D01*
X0071984Y0041006D01*
X0071932Y0041112D01*
X0071884Y0041220D01*
X0071839Y0041329D01*
X0071798Y0041440D01*
X0071761Y0041552D01*
X0071727Y0041666D01*
X0071697Y0041780D01*
X0071672Y0041895D01*
X0071650Y0042012D01*
X0071632Y0042129D01*
X0071618Y0042246D01*
X0071608Y0042364D01*
X0071602Y0042482D01*
X0071600Y0042600D01*
X0098801Y0121100D02*
X0098803Y0121258D01*
X0098809Y0121416D01*
X0098819Y0121574D01*
X0098833Y0121732D01*
X0098851Y0121889D01*
X0098872Y0122046D01*
X0098898Y0122202D01*
X0098928Y0122358D01*
X0098961Y0122513D01*
X0098999Y0122666D01*
X0099040Y0122819D01*
X0099085Y0122971D01*
X0099134Y0123122D01*
X0099187Y0123271D01*
X0099243Y0123419D01*
X0099303Y0123565D01*
X0099367Y0123710D01*
X0099435Y0123853D01*
X0099506Y0123995D01*
X0099580Y0124135D01*
X0099658Y0124272D01*
X0099740Y0124408D01*
X0099824Y0124542D01*
X0099913Y0124673D01*
X0100004Y0124802D01*
X0100099Y0124929D01*
X0100196Y0125054D01*
X0100297Y0125176D01*
X0100401Y0125295D01*
X0100508Y0125412D01*
X0100618Y0125526D01*
X0100731Y0125637D01*
X0100846Y0125746D01*
X0100964Y0125851D01*
X0101085Y0125953D01*
X0101208Y0126053D01*
X0101334Y0126149D01*
X0101462Y0126242D01*
X0101592Y0126332D01*
X0101725Y0126418D01*
X0101860Y0126502D01*
X0101996Y0126581D01*
X0102135Y0126658D01*
X0102276Y0126730D01*
X0102418Y0126800D01*
X0102562Y0126865D01*
X0102708Y0126927D01*
X0102855Y0126985D01*
X0103004Y0127040D01*
X0103154Y0127091D01*
X0103305Y0127138D01*
X0103457Y0127181D01*
X0103610Y0127220D01*
X0103765Y0127256D01*
X0103920Y0127287D01*
X0104076Y0127315D01*
X0104232Y0127339D01*
X0104389Y0127359D01*
X0104547Y0127375D01*
X0104704Y0127387D01*
X0104863Y0127395D01*
X0105021Y0127399D01*
X0105179Y0127399D01*
X0105337Y0127395D01*
X0105496Y0127387D01*
X0105653Y0127375D01*
X0105811Y0127359D01*
X0105968Y0127339D01*
X0106124Y0127315D01*
X0106280Y0127287D01*
X0106435Y0127256D01*
X0106590Y0127220D01*
X0106743Y0127181D01*
X0106895Y0127138D01*
X0107046Y0127091D01*
X0107196Y0127040D01*
X0107345Y0126985D01*
X0107492Y0126927D01*
X0107638Y0126865D01*
X0107782Y0126800D01*
X0107924Y0126730D01*
X0108065Y0126658D01*
X0108204Y0126581D01*
X0108340Y0126502D01*
X0108475Y0126418D01*
X0108608Y0126332D01*
X0108738Y0126242D01*
X0108866Y0126149D01*
X0108992Y0126053D01*
X0109115Y0125953D01*
X0109236Y0125851D01*
X0109354Y0125746D01*
X0109469Y0125637D01*
X0109582Y0125526D01*
X0109692Y0125412D01*
X0109799Y0125295D01*
X0109903Y0125176D01*
X0110004Y0125054D01*
X0110101Y0124929D01*
X0110196Y0124802D01*
X0110287Y0124673D01*
X0110376Y0124542D01*
X0110460Y0124408D01*
X0110542Y0124272D01*
X0110620Y0124135D01*
X0110694Y0123995D01*
X0110765Y0123853D01*
X0110833Y0123710D01*
X0110897Y0123565D01*
X0110957Y0123419D01*
X0111013Y0123271D01*
X0111066Y0123122D01*
X0111115Y0122971D01*
X0111160Y0122819D01*
X0111201Y0122666D01*
X0111239Y0122513D01*
X0111272Y0122358D01*
X0111302Y0122202D01*
X0111328Y0122046D01*
X0111349Y0121889D01*
X0111367Y0121732D01*
X0111381Y0121574D01*
X0111391Y0121416D01*
X0111397Y0121258D01*
X0111399Y0121100D01*
X0111397Y0120942D01*
X0111391Y0120784D01*
X0111381Y0120626D01*
X0111367Y0120468D01*
X0111349Y0120311D01*
X0111328Y0120154D01*
X0111302Y0119998D01*
X0111272Y0119842D01*
X0111239Y0119687D01*
X0111201Y0119534D01*
X0111160Y0119381D01*
X0111115Y0119229D01*
X0111066Y0119078D01*
X0111013Y0118929D01*
X0110957Y0118781D01*
X0110897Y0118635D01*
X0110833Y0118490D01*
X0110765Y0118347D01*
X0110694Y0118205D01*
X0110620Y0118065D01*
X0110542Y0117928D01*
X0110460Y0117792D01*
X0110376Y0117658D01*
X0110287Y0117527D01*
X0110196Y0117398D01*
X0110101Y0117271D01*
X0110004Y0117146D01*
X0109903Y0117024D01*
X0109799Y0116905D01*
X0109692Y0116788D01*
X0109582Y0116674D01*
X0109469Y0116563D01*
X0109354Y0116454D01*
X0109236Y0116349D01*
X0109115Y0116247D01*
X0108992Y0116147D01*
X0108866Y0116051D01*
X0108738Y0115958D01*
X0108608Y0115868D01*
X0108475Y0115782D01*
X0108340Y0115698D01*
X0108204Y0115619D01*
X0108065Y0115542D01*
X0107924Y0115470D01*
X0107782Y0115400D01*
X0107638Y0115335D01*
X0107492Y0115273D01*
X0107345Y0115215D01*
X0107196Y0115160D01*
X0107046Y0115109D01*
X0106895Y0115062D01*
X0106743Y0115019D01*
X0106590Y0114980D01*
X0106435Y0114944D01*
X0106280Y0114913D01*
X0106124Y0114885D01*
X0105968Y0114861D01*
X0105811Y0114841D01*
X0105653Y0114825D01*
X0105496Y0114813D01*
X0105337Y0114805D01*
X0105179Y0114801D01*
X0105021Y0114801D01*
X0104863Y0114805D01*
X0104704Y0114813D01*
X0104547Y0114825D01*
X0104389Y0114841D01*
X0104232Y0114861D01*
X0104076Y0114885D01*
X0103920Y0114913D01*
X0103765Y0114944D01*
X0103610Y0114980D01*
X0103457Y0115019D01*
X0103305Y0115062D01*
X0103154Y0115109D01*
X0103004Y0115160D01*
X0102855Y0115215D01*
X0102708Y0115273D01*
X0102562Y0115335D01*
X0102418Y0115400D01*
X0102276Y0115470D01*
X0102135Y0115542D01*
X0101996Y0115619D01*
X0101860Y0115698D01*
X0101725Y0115782D01*
X0101592Y0115868D01*
X0101462Y0115958D01*
X0101334Y0116051D01*
X0101208Y0116147D01*
X0101085Y0116247D01*
X0100964Y0116349D01*
X0100846Y0116454D01*
X0100731Y0116563D01*
X0100618Y0116674D01*
X0100508Y0116788D01*
X0100401Y0116905D01*
X0100297Y0117024D01*
X0100196Y0117146D01*
X0100099Y0117271D01*
X0100004Y0117398D01*
X0099913Y0117527D01*
X0099824Y0117658D01*
X0099740Y0117792D01*
X0099658Y0117928D01*
X0099580Y0118065D01*
X0099506Y0118205D01*
X0099435Y0118347D01*
X0099367Y0118490D01*
X0099303Y0118635D01*
X0099243Y0118781D01*
X0099187Y0118929D01*
X0099134Y0119078D01*
X0099085Y0119229D01*
X0099040Y0119381D01*
X0098999Y0119534D01*
X0098961Y0119687D01*
X0098928Y0119842D01*
X0098898Y0119998D01*
X0098872Y0120154D01*
X0098851Y0120311D01*
X0098833Y0120468D01*
X0098819Y0120626D01*
X0098809Y0120784D01*
X0098803Y0120942D01*
X0098801Y0121100D01*
X0098600Y0121100D02*
X0098602Y0121261D01*
X0098608Y0121421D01*
X0098618Y0121582D01*
X0098632Y0121742D01*
X0098650Y0121902D01*
X0098671Y0122061D01*
X0098697Y0122220D01*
X0098727Y0122378D01*
X0098760Y0122535D01*
X0098798Y0122692D01*
X0098839Y0122847D01*
X0098884Y0123001D01*
X0098933Y0123154D01*
X0098986Y0123306D01*
X0099042Y0123457D01*
X0099103Y0123606D01*
X0099166Y0123754D01*
X0099234Y0123900D01*
X0099305Y0124044D01*
X0099379Y0124186D01*
X0099457Y0124327D01*
X0099539Y0124465D01*
X0099624Y0124602D01*
X0099712Y0124736D01*
X0099804Y0124868D01*
X0099899Y0124998D01*
X0099997Y0125126D01*
X0100098Y0125251D01*
X0100202Y0125373D01*
X0100309Y0125493D01*
X0100419Y0125610D01*
X0100532Y0125725D01*
X0100648Y0125836D01*
X0100767Y0125945D01*
X0100888Y0126050D01*
X0101012Y0126153D01*
X0101138Y0126253D01*
X0101266Y0126349D01*
X0101397Y0126442D01*
X0101531Y0126532D01*
X0101666Y0126619D01*
X0101804Y0126702D01*
X0101943Y0126782D01*
X0102085Y0126858D01*
X0102228Y0126931D01*
X0102373Y0127000D01*
X0102520Y0127066D01*
X0102668Y0127128D01*
X0102818Y0127186D01*
X0102969Y0127241D01*
X0103122Y0127292D01*
X0103276Y0127339D01*
X0103431Y0127382D01*
X0103587Y0127421D01*
X0103743Y0127457D01*
X0103901Y0127488D01*
X0104059Y0127516D01*
X0104218Y0127540D01*
X0104378Y0127560D01*
X0104538Y0127576D01*
X0104698Y0127588D01*
X0104859Y0127596D01*
X0105020Y0127600D01*
X0105180Y0127600D01*
X0105341Y0127596D01*
X0105502Y0127588D01*
X0105662Y0127576D01*
X0105822Y0127560D01*
X0105982Y0127540D01*
X0106141Y0127516D01*
X0106299Y0127488D01*
X0106457Y0127457D01*
X0106613Y0127421D01*
X0106769Y0127382D01*
X0106924Y0127339D01*
X0107078Y0127292D01*
X0107231Y0127241D01*
X0107382Y0127186D01*
X0107532Y0127128D01*
X0107680Y0127066D01*
X0107827Y0127000D01*
X0107972Y0126931D01*
X0108115Y0126858D01*
X0108257Y0126782D01*
X0108396Y0126702D01*
X0108534Y0126619D01*
X0108669Y0126532D01*
X0108803Y0126442D01*
X0108934Y0126349D01*
X0109062Y0126253D01*
X0109188Y0126153D01*
X0109312Y0126050D01*
X0109433Y0125945D01*
X0109552Y0125836D01*
X0109668Y0125725D01*
X0109781Y0125610D01*
X0109891Y0125493D01*
X0109998Y0125373D01*
X0110102Y0125251D01*
X0110203Y0125126D01*
X0110301Y0124998D01*
X0110396Y0124868D01*
X0110488Y0124736D01*
X0110576Y0124602D01*
X0110661Y0124465D01*
X0110743Y0124327D01*
X0110821Y0124186D01*
X0110895Y0124044D01*
X0110966Y0123900D01*
X0111034Y0123754D01*
X0111097Y0123606D01*
X0111158Y0123457D01*
X0111214Y0123306D01*
X0111267Y0123154D01*
X0111316Y0123001D01*
X0111361Y0122847D01*
X0111402Y0122692D01*
X0111440Y0122535D01*
X0111473Y0122378D01*
X0111503Y0122220D01*
X0111529Y0122061D01*
X0111550Y0121902D01*
X0111568Y0121742D01*
X0111582Y0121582D01*
X0111592Y0121421D01*
X0111598Y0121261D01*
X0111600Y0121100D01*
X0111598Y0120939D01*
X0111592Y0120779D01*
X0111582Y0120618D01*
X0111568Y0120458D01*
X0111550Y0120298D01*
X0111529Y0120139D01*
X0111503Y0119980D01*
X0111473Y0119822D01*
X0111440Y0119665D01*
X0111402Y0119508D01*
X0111361Y0119353D01*
X0111316Y0119199D01*
X0111267Y0119046D01*
X0111214Y0118894D01*
X0111158Y0118743D01*
X0111097Y0118594D01*
X0111034Y0118446D01*
X0110966Y0118300D01*
X0110895Y0118156D01*
X0110821Y0118014D01*
X0110743Y0117873D01*
X0110661Y0117735D01*
X0110576Y0117598D01*
X0110488Y0117464D01*
X0110396Y0117332D01*
X0110301Y0117202D01*
X0110203Y0117074D01*
X0110102Y0116949D01*
X0109998Y0116827D01*
X0109891Y0116707D01*
X0109781Y0116590D01*
X0109668Y0116475D01*
X0109552Y0116364D01*
X0109433Y0116255D01*
X0109312Y0116150D01*
X0109188Y0116047D01*
X0109062Y0115947D01*
X0108934Y0115851D01*
X0108803Y0115758D01*
X0108669Y0115668D01*
X0108534Y0115581D01*
X0108396Y0115498D01*
X0108257Y0115418D01*
X0108115Y0115342D01*
X0107972Y0115269D01*
X0107827Y0115200D01*
X0107680Y0115134D01*
X0107532Y0115072D01*
X0107382Y0115014D01*
X0107231Y0114959D01*
X0107078Y0114908D01*
X0106924Y0114861D01*
X0106769Y0114818D01*
X0106613Y0114779D01*
X0106457Y0114743D01*
X0106299Y0114712D01*
X0106141Y0114684D01*
X0105982Y0114660D01*
X0105822Y0114640D01*
X0105662Y0114624D01*
X0105502Y0114612D01*
X0105341Y0114604D01*
X0105180Y0114600D01*
X0105020Y0114600D01*
X0104859Y0114604D01*
X0104698Y0114612D01*
X0104538Y0114624D01*
X0104378Y0114640D01*
X0104218Y0114660D01*
X0104059Y0114684D01*
X0103901Y0114712D01*
X0103743Y0114743D01*
X0103587Y0114779D01*
X0103431Y0114818D01*
X0103276Y0114861D01*
X0103122Y0114908D01*
X0102969Y0114959D01*
X0102818Y0115014D01*
X0102668Y0115072D01*
X0102520Y0115134D01*
X0102373Y0115200D01*
X0102228Y0115269D01*
X0102085Y0115342D01*
X0101943Y0115418D01*
X0101804Y0115498D01*
X0101666Y0115581D01*
X0101531Y0115668D01*
X0101397Y0115758D01*
X0101266Y0115851D01*
X0101138Y0115947D01*
X0101012Y0116047D01*
X0100888Y0116150D01*
X0100767Y0116255D01*
X0100648Y0116364D01*
X0100532Y0116475D01*
X0100419Y0116590D01*
X0100309Y0116707D01*
X0100202Y0116827D01*
X0100098Y0116949D01*
X0099997Y0117074D01*
X0099899Y0117202D01*
X0099804Y0117332D01*
X0099712Y0117464D01*
X0099624Y0117598D01*
X0099539Y0117735D01*
X0099457Y0117873D01*
X0099379Y0118014D01*
X0099305Y0118156D01*
X0099234Y0118300D01*
X0099166Y0118446D01*
X0099103Y0118594D01*
X0099042Y0118743D01*
X0098986Y0118894D01*
X0098933Y0119046D01*
X0098884Y0119199D01*
X0098839Y0119353D01*
X0098798Y0119508D01*
X0098760Y0119665D01*
X0098727Y0119822D01*
X0098697Y0119980D01*
X0098671Y0120139D01*
X0098650Y0120298D01*
X0098632Y0120458D01*
X0098618Y0120618D01*
X0098608Y0120779D01*
X0098602Y0120939D01*
X0098600Y0121100D01*
X0131600Y0042600D02*
X0131602Y0042718D01*
X0131608Y0042836D01*
X0131618Y0042954D01*
X0131632Y0043071D01*
X0131650Y0043188D01*
X0131672Y0043305D01*
X0131697Y0043420D01*
X0131727Y0043534D01*
X0131761Y0043648D01*
X0131798Y0043760D01*
X0131839Y0043871D01*
X0131884Y0043980D01*
X0131932Y0044088D01*
X0131984Y0044194D01*
X0132040Y0044299D01*
X0132099Y0044401D01*
X0132161Y0044501D01*
X0132227Y0044599D01*
X0132296Y0044695D01*
X0132369Y0044789D01*
X0132444Y0044880D01*
X0132523Y0044968D01*
X0132604Y0045054D01*
X0132689Y0045137D01*
X0132776Y0045217D01*
X0132865Y0045294D01*
X0132958Y0045368D01*
X0133052Y0045438D01*
X0133149Y0045506D01*
X0133249Y0045570D01*
X0133350Y0045631D01*
X0133453Y0045688D01*
X0133559Y0045742D01*
X0133666Y0045793D01*
X0133774Y0045839D01*
X0133884Y0045882D01*
X0133996Y0045921D01*
X0134109Y0045957D01*
X0134223Y0045988D01*
X0134338Y0046016D01*
X0134453Y0046040D01*
X0134570Y0046060D01*
X0134687Y0046076D01*
X0134805Y0046088D01*
X0134923Y0046096D01*
X0135041Y0046100D01*
X0135159Y0046100D01*
X0135277Y0046096D01*
X0135395Y0046088D01*
X0135513Y0046076D01*
X0135630Y0046060D01*
X0135747Y0046040D01*
X0135862Y0046016D01*
X0135977Y0045988D01*
X0136091Y0045957D01*
X0136204Y0045921D01*
X0136316Y0045882D01*
X0136426Y0045839D01*
X0136534Y0045793D01*
X0136641Y0045742D01*
X0136747Y0045688D01*
X0136850Y0045631D01*
X0136951Y0045570D01*
X0137051Y0045506D01*
X0137148Y0045438D01*
X0137242Y0045368D01*
X0137335Y0045294D01*
X0137424Y0045217D01*
X0137511Y0045137D01*
X0137596Y0045054D01*
X0137677Y0044968D01*
X0137756Y0044880D01*
X0137831Y0044789D01*
X0137904Y0044695D01*
X0137973Y0044599D01*
X0138039Y0044501D01*
X0138101Y0044401D01*
X0138160Y0044299D01*
X0138216Y0044194D01*
X0138268Y0044088D01*
X0138316Y0043980D01*
X0138361Y0043871D01*
X0138402Y0043760D01*
X0138439Y0043648D01*
X0138473Y0043534D01*
X0138503Y0043420D01*
X0138528Y0043305D01*
X0138550Y0043188D01*
X0138568Y0043071D01*
X0138582Y0042954D01*
X0138592Y0042836D01*
X0138598Y0042718D01*
X0138600Y0042600D01*
X0138598Y0042482D01*
X0138592Y0042364D01*
X0138582Y0042246D01*
X0138568Y0042129D01*
X0138550Y0042012D01*
X0138528Y0041895D01*
X0138503Y0041780D01*
X0138473Y0041666D01*
X0138439Y0041552D01*
X0138402Y0041440D01*
X0138361Y0041329D01*
X0138316Y0041220D01*
X0138268Y0041112D01*
X0138216Y0041006D01*
X0138160Y0040901D01*
X0138101Y0040799D01*
X0138039Y0040699D01*
X0137973Y0040601D01*
X0137904Y0040505D01*
X0137831Y0040411D01*
X0137756Y0040320D01*
X0137677Y0040232D01*
X0137596Y0040146D01*
X0137511Y0040063D01*
X0137424Y0039983D01*
X0137335Y0039906D01*
X0137242Y0039832D01*
X0137148Y0039762D01*
X0137051Y0039694D01*
X0136951Y0039630D01*
X0136850Y0039569D01*
X0136747Y0039512D01*
X0136641Y0039458D01*
X0136534Y0039407D01*
X0136426Y0039361D01*
X0136316Y0039318D01*
X0136204Y0039279D01*
X0136091Y0039243D01*
X0135977Y0039212D01*
X0135862Y0039184D01*
X0135747Y0039160D01*
X0135630Y0039140D01*
X0135513Y0039124D01*
X0135395Y0039112D01*
X0135277Y0039104D01*
X0135159Y0039100D01*
X0135041Y0039100D01*
X0134923Y0039104D01*
X0134805Y0039112D01*
X0134687Y0039124D01*
X0134570Y0039140D01*
X0134453Y0039160D01*
X0134338Y0039184D01*
X0134223Y0039212D01*
X0134109Y0039243D01*
X0133996Y0039279D01*
X0133884Y0039318D01*
X0133774Y0039361D01*
X0133666Y0039407D01*
X0133559Y0039458D01*
X0133453Y0039512D01*
X0133350Y0039569D01*
X0133249Y0039630D01*
X0133149Y0039694D01*
X0133052Y0039762D01*
X0132958Y0039832D01*
X0132865Y0039906D01*
X0132776Y0039983D01*
X0132689Y0040063D01*
X0132604Y0040146D01*
X0132523Y0040232D01*
X0132444Y0040320D01*
X0132369Y0040411D01*
X0132296Y0040505D01*
X0132227Y0040601D01*
X0132161Y0040699D01*
X0132099Y0040799D01*
X0132040Y0040901D01*
X0131984Y0041006D01*
X0131932Y0041112D01*
X0131884Y0041220D01*
X0131839Y0041329D01*
X0131798Y0041440D01*
X0131761Y0041552D01*
X0131727Y0041666D01*
X0131697Y0041780D01*
X0131672Y0041895D01*
X0131650Y0042012D01*
X0131632Y0042129D01*
X0131618Y0042246D01*
X0131608Y0042364D01*
X0131602Y0042482D01*
X0131600Y0042600D01*
X0131600Y0202600D02*
X0131602Y0202718D01*
X0131608Y0202836D01*
X0131618Y0202954D01*
X0131632Y0203071D01*
X0131650Y0203188D01*
X0131672Y0203305D01*
X0131697Y0203420D01*
X0131727Y0203534D01*
X0131761Y0203648D01*
X0131798Y0203760D01*
X0131839Y0203871D01*
X0131884Y0203980D01*
X0131932Y0204088D01*
X0131984Y0204194D01*
X0132040Y0204299D01*
X0132099Y0204401D01*
X0132161Y0204501D01*
X0132227Y0204599D01*
X0132296Y0204695D01*
X0132369Y0204789D01*
X0132444Y0204880D01*
X0132523Y0204968D01*
X0132604Y0205054D01*
X0132689Y0205137D01*
X0132776Y0205217D01*
X0132865Y0205294D01*
X0132958Y0205368D01*
X0133052Y0205438D01*
X0133149Y0205506D01*
X0133249Y0205570D01*
X0133350Y0205631D01*
X0133453Y0205688D01*
X0133559Y0205742D01*
X0133666Y0205793D01*
X0133774Y0205839D01*
X0133884Y0205882D01*
X0133996Y0205921D01*
X0134109Y0205957D01*
X0134223Y0205988D01*
X0134338Y0206016D01*
X0134453Y0206040D01*
X0134570Y0206060D01*
X0134687Y0206076D01*
X0134805Y0206088D01*
X0134923Y0206096D01*
X0135041Y0206100D01*
X0135159Y0206100D01*
X0135277Y0206096D01*
X0135395Y0206088D01*
X0135513Y0206076D01*
X0135630Y0206060D01*
X0135747Y0206040D01*
X0135862Y0206016D01*
X0135977Y0205988D01*
X0136091Y0205957D01*
X0136204Y0205921D01*
X0136316Y0205882D01*
X0136426Y0205839D01*
X0136534Y0205793D01*
X0136641Y0205742D01*
X0136747Y0205688D01*
X0136850Y0205631D01*
X0136951Y0205570D01*
X0137051Y0205506D01*
X0137148Y0205438D01*
X0137242Y0205368D01*
X0137335Y0205294D01*
X0137424Y0205217D01*
X0137511Y0205137D01*
X0137596Y0205054D01*
X0137677Y0204968D01*
X0137756Y0204880D01*
X0137831Y0204789D01*
X0137904Y0204695D01*
X0137973Y0204599D01*
X0138039Y0204501D01*
X0138101Y0204401D01*
X0138160Y0204299D01*
X0138216Y0204194D01*
X0138268Y0204088D01*
X0138316Y0203980D01*
X0138361Y0203871D01*
X0138402Y0203760D01*
X0138439Y0203648D01*
X0138473Y0203534D01*
X0138503Y0203420D01*
X0138528Y0203305D01*
X0138550Y0203188D01*
X0138568Y0203071D01*
X0138582Y0202954D01*
X0138592Y0202836D01*
X0138598Y0202718D01*
X0138600Y0202600D01*
X0138598Y0202482D01*
X0138592Y0202364D01*
X0138582Y0202246D01*
X0138568Y0202129D01*
X0138550Y0202012D01*
X0138528Y0201895D01*
X0138503Y0201780D01*
X0138473Y0201666D01*
X0138439Y0201552D01*
X0138402Y0201440D01*
X0138361Y0201329D01*
X0138316Y0201220D01*
X0138268Y0201112D01*
X0138216Y0201006D01*
X0138160Y0200901D01*
X0138101Y0200799D01*
X0138039Y0200699D01*
X0137973Y0200601D01*
X0137904Y0200505D01*
X0137831Y0200411D01*
X0137756Y0200320D01*
X0137677Y0200232D01*
X0137596Y0200146D01*
X0137511Y0200063D01*
X0137424Y0199983D01*
X0137335Y0199906D01*
X0137242Y0199832D01*
X0137148Y0199762D01*
X0137051Y0199694D01*
X0136951Y0199630D01*
X0136850Y0199569D01*
X0136747Y0199512D01*
X0136641Y0199458D01*
X0136534Y0199407D01*
X0136426Y0199361D01*
X0136316Y0199318D01*
X0136204Y0199279D01*
X0136091Y0199243D01*
X0135977Y0199212D01*
X0135862Y0199184D01*
X0135747Y0199160D01*
X0135630Y0199140D01*
X0135513Y0199124D01*
X0135395Y0199112D01*
X0135277Y0199104D01*
X0135159Y0199100D01*
X0135041Y0199100D01*
X0134923Y0199104D01*
X0134805Y0199112D01*
X0134687Y0199124D01*
X0134570Y0199140D01*
X0134453Y0199160D01*
X0134338Y0199184D01*
X0134223Y0199212D01*
X0134109Y0199243D01*
X0133996Y0199279D01*
X0133884Y0199318D01*
X0133774Y0199361D01*
X0133666Y0199407D01*
X0133559Y0199458D01*
X0133453Y0199512D01*
X0133350Y0199569D01*
X0133249Y0199630D01*
X0133149Y0199694D01*
X0133052Y0199762D01*
X0132958Y0199832D01*
X0132865Y0199906D01*
X0132776Y0199983D01*
X0132689Y0200063D01*
X0132604Y0200146D01*
X0132523Y0200232D01*
X0132444Y0200320D01*
X0132369Y0200411D01*
X0132296Y0200505D01*
X0132227Y0200601D01*
X0132161Y0200699D01*
X0132099Y0200799D01*
X0132040Y0200901D01*
X0131984Y0201006D01*
X0131932Y0201112D01*
X0131884Y0201220D01*
X0131839Y0201329D01*
X0131798Y0201440D01*
X0131761Y0201552D01*
X0131727Y0201666D01*
X0131697Y0201780D01*
X0131672Y0201895D01*
X0131650Y0202012D01*
X0131632Y0202129D01*
X0131618Y0202246D01*
X0131608Y0202364D01*
X0131602Y0202482D01*
X0131600Y0202600D01*
X0071600Y0202600D02*
X0071602Y0202718D01*
X0071608Y0202836D01*
X0071618Y0202954D01*
X0071632Y0203071D01*
X0071650Y0203188D01*
X0071672Y0203305D01*
X0071697Y0203420D01*
X0071727Y0203534D01*
X0071761Y0203648D01*
X0071798Y0203760D01*
X0071839Y0203871D01*
X0071884Y0203980D01*
X0071932Y0204088D01*
X0071984Y0204194D01*
X0072040Y0204299D01*
X0072099Y0204401D01*
X0072161Y0204501D01*
X0072227Y0204599D01*
X0072296Y0204695D01*
X0072369Y0204789D01*
X0072444Y0204880D01*
X0072523Y0204968D01*
X0072604Y0205054D01*
X0072689Y0205137D01*
X0072776Y0205217D01*
X0072865Y0205294D01*
X0072958Y0205368D01*
X0073052Y0205438D01*
X0073149Y0205506D01*
X0073249Y0205570D01*
X0073350Y0205631D01*
X0073453Y0205688D01*
X0073559Y0205742D01*
X0073666Y0205793D01*
X0073774Y0205839D01*
X0073884Y0205882D01*
X0073996Y0205921D01*
X0074109Y0205957D01*
X0074223Y0205988D01*
X0074338Y0206016D01*
X0074453Y0206040D01*
X0074570Y0206060D01*
X0074687Y0206076D01*
X0074805Y0206088D01*
X0074923Y0206096D01*
X0075041Y0206100D01*
X0075159Y0206100D01*
X0075277Y0206096D01*
X0075395Y0206088D01*
X0075513Y0206076D01*
X0075630Y0206060D01*
X0075747Y0206040D01*
X0075862Y0206016D01*
X0075977Y0205988D01*
X0076091Y0205957D01*
X0076204Y0205921D01*
X0076316Y0205882D01*
X0076426Y0205839D01*
X0076534Y0205793D01*
X0076641Y0205742D01*
X0076747Y0205688D01*
X0076850Y0205631D01*
X0076951Y0205570D01*
X0077051Y0205506D01*
X0077148Y0205438D01*
X0077242Y0205368D01*
X0077335Y0205294D01*
X0077424Y0205217D01*
X0077511Y0205137D01*
X0077596Y0205054D01*
X0077677Y0204968D01*
X0077756Y0204880D01*
X0077831Y0204789D01*
X0077904Y0204695D01*
X0077973Y0204599D01*
X0078039Y0204501D01*
X0078101Y0204401D01*
X0078160Y0204299D01*
X0078216Y0204194D01*
X0078268Y0204088D01*
X0078316Y0203980D01*
X0078361Y0203871D01*
X0078402Y0203760D01*
X0078439Y0203648D01*
X0078473Y0203534D01*
X0078503Y0203420D01*
X0078528Y0203305D01*
X0078550Y0203188D01*
X0078568Y0203071D01*
X0078582Y0202954D01*
X0078592Y0202836D01*
X0078598Y0202718D01*
X0078600Y0202600D01*
X0078598Y0202482D01*
X0078592Y0202364D01*
X0078582Y0202246D01*
X0078568Y0202129D01*
X0078550Y0202012D01*
X0078528Y0201895D01*
X0078503Y0201780D01*
X0078473Y0201666D01*
X0078439Y0201552D01*
X0078402Y0201440D01*
X0078361Y0201329D01*
X0078316Y0201220D01*
X0078268Y0201112D01*
X0078216Y0201006D01*
X0078160Y0200901D01*
X0078101Y0200799D01*
X0078039Y0200699D01*
X0077973Y0200601D01*
X0077904Y0200505D01*
X0077831Y0200411D01*
X0077756Y0200320D01*
X0077677Y0200232D01*
X0077596Y0200146D01*
X0077511Y0200063D01*
X0077424Y0199983D01*
X0077335Y0199906D01*
X0077242Y0199832D01*
X0077148Y0199762D01*
X0077051Y0199694D01*
X0076951Y0199630D01*
X0076850Y0199569D01*
X0076747Y0199512D01*
X0076641Y0199458D01*
X0076534Y0199407D01*
X0076426Y0199361D01*
X0076316Y0199318D01*
X0076204Y0199279D01*
X0076091Y0199243D01*
X0075977Y0199212D01*
X0075862Y0199184D01*
X0075747Y0199160D01*
X0075630Y0199140D01*
X0075513Y0199124D01*
X0075395Y0199112D01*
X0075277Y0199104D01*
X0075159Y0199100D01*
X0075041Y0199100D01*
X0074923Y0199104D01*
X0074805Y0199112D01*
X0074687Y0199124D01*
X0074570Y0199140D01*
X0074453Y0199160D01*
X0074338Y0199184D01*
X0074223Y0199212D01*
X0074109Y0199243D01*
X0073996Y0199279D01*
X0073884Y0199318D01*
X0073774Y0199361D01*
X0073666Y0199407D01*
X0073559Y0199458D01*
X0073453Y0199512D01*
X0073350Y0199569D01*
X0073249Y0199630D01*
X0073149Y0199694D01*
X0073052Y0199762D01*
X0072958Y0199832D01*
X0072865Y0199906D01*
X0072776Y0199983D01*
X0072689Y0200063D01*
X0072604Y0200146D01*
X0072523Y0200232D01*
X0072444Y0200320D01*
X0072369Y0200411D01*
X0072296Y0200505D01*
X0072227Y0200601D01*
X0072161Y0200699D01*
X0072099Y0200799D01*
X0072040Y0200901D01*
X0071984Y0201006D01*
X0071932Y0201112D01*
X0071884Y0201220D01*
X0071839Y0201329D01*
X0071798Y0201440D01*
X0071761Y0201552D01*
X0071727Y0201666D01*
X0071697Y0201780D01*
X0071672Y0201895D01*
X0071650Y0202012D01*
X0071632Y0202129D01*
X0071618Y0202246D01*
X0071608Y0202364D01*
X0071602Y0202482D01*
X0071600Y0202600D01*
M02*
