G75*
%MOIN*%
%OFA0B0*%
%FSLAX25Y25*%
%IPPOS*%
%LPD*%
%AMOC8*
5,1,8,0,0,1.08239X$1,22.5*
%
%ADD10C,0.07787*%
%ADD11R,0.05709X0.05709*%
%ADD12C,0.05709*%
%ADD13OC8,0.05759*%
%ADD14OC8,0.07087*%
%ADD15C,0.07087*%
%ADD16C,0.05759*%
%ADD17C,0.06787*%
%ADD18C,0.13787*%
%ADD19C,0.13386*%
%ADD20C,0.08661*%
%ADD21C,0.07874*%
%ADD22OC8,0.03150*%
D10*
X0075100Y0042600D03*
X0135100Y0042600D03*
X0135100Y0202600D03*
X0075100Y0202600D03*
D11*
X0135100Y0052600D03*
D12*
X0135100Y0062600D03*
X0135100Y0072600D03*
X0135100Y0082600D03*
X0135100Y0092600D03*
X0135100Y0102600D03*
X0135100Y0112600D03*
X0135100Y0122600D03*
X0135100Y0132600D03*
X0135100Y0142600D03*
X0135100Y0152600D03*
X0135100Y0162600D03*
X0135100Y0172600D03*
X0135100Y0182600D03*
X0135100Y0192600D03*
X0075100Y0192600D03*
X0075100Y0182600D03*
X0075100Y0172600D03*
X0075100Y0162600D03*
X0075100Y0152600D03*
X0075100Y0142600D03*
X0075100Y0132600D03*
X0075100Y0122600D03*
X0075100Y0112600D03*
X0075100Y0102600D03*
X0075100Y0092600D03*
X0075100Y0082600D03*
X0075100Y0072600D03*
X0075100Y0062600D03*
X0075100Y0052600D03*
D13*
X0062600Y0057600D03*
X0062600Y0070100D03*
X0052600Y0070100D03*
X0052600Y0057600D03*
X0040100Y0052600D03*
X0040100Y0042600D03*
X0040100Y0062600D03*
X0040100Y0072600D03*
X0025100Y0072600D03*
X0015100Y0072600D03*
X0022600Y0057600D03*
X0022600Y0047600D03*
X0052600Y0123850D03*
X0052600Y0133850D03*
X0045100Y0132600D03*
X0047600Y0145100D03*
X0055100Y0145100D03*
X0062600Y0137600D03*
X0065100Y0145100D03*
X0062600Y0127600D03*
X0047600Y0155100D03*
X0040100Y0145100D03*
X0030100Y0145100D03*
X0022600Y0140100D03*
X0015100Y0140100D03*
X0015100Y0130100D03*
X0022600Y0130100D03*
X0035100Y0132600D03*
X0022600Y0152600D03*
X0012600Y0152600D03*
X0022600Y0172600D03*
X0015100Y0175100D03*
X0015100Y0185100D03*
X0022600Y0182600D03*
X0060100Y0190100D03*
X0060100Y0200100D03*
X0087600Y0197600D03*
X0097600Y0197600D03*
X0095100Y0212600D03*
X0095100Y0222600D03*
X0112600Y0197600D03*
X0122600Y0197600D03*
X0150100Y0195100D03*
X0150100Y0185100D03*
X0125100Y0077600D03*
X0115100Y0077600D03*
D14*
X0120100Y0222600D03*
X0147600Y0222600D03*
D15*
X0137600Y0222600D03*
X0110100Y0222600D03*
D16*
X0050086Y0165100D02*
X0045114Y0165100D01*
X0020086Y0165100D02*
X0015114Y0165100D01*
X0015100Y0120086D02*
X0015100Y0115114D01*
X0030100Y0117586D02*
X0030100Y0112614D01*
X0040100Y0112614D02*
X0040100Y0117586D01*
X0050100Y0117586D02*
X0050100Y0112614D01*
X0060100Y0112614D02*
X0060100Y0117586D01*
X0060100Y0087586D02*
X0060100Y0082614D01*
X0050100Y0082614D02*
X0050100Y0087586D01*
X0040100Y0087586D02*
X0040100Y0082614D01*
X0030100Y0082614D02*
X0030100Y0087586D01*
X0015100Y0085114D02*
X0015100Y0090086D01*
X0147614Y0092600D02*
X0152586Y0092600D01*
X0152586Y0082600D02*
X0147614Y0082600D01*
X0147614Y0072600D02*
X0152586Y0072600D01*
D17*
X0115100Y0177100D02*
X0115100Y0183100D01*
X0105100Y0183100D02*
X0105100Y0177100D01*
X0095100Y0177100D02*
X0095100Y0183100D01*
D18*
X0105100Y0121100D03*
D19*
X0105100Y0121100D03*
D20*
X0025017Y0020198D03*
X0045017Y0020198D03*
X0065017Y0020198D03*
X0085017Y0020198D03*
X0105017Y0020198D03*
X0125017Y0020198D03*
X0042517Y0222698D03*
X0022517Y0222698D03*
D21*
X0025100Y0201143D02*
X0025100Y0194057D01*
X0035100Y0194057D02*
X0035100Y0201143D01*
X0045100Y0201143D02*
X0045100Y0194057D01*
X0059057Y0212600D02*
X0066143Y0212600D01*
X0066143Y0222600D02*
X0059057Y0222600D01*
X0076557Y0222600D02*
X0083643Y0222600D01*
X0083643Y0212600D02*
X0076557Y0212600D01*
X0015100Y0201143D02*
X0015100Y0194057D01*
X0146557Y0172600D02*
X0153643Y0172600D01*
X0153643Y0162600D02*
X0146557Y0162600D01*
X0146557Y0152600D02*
X0153643Y0152600D01*
X0153643Y0142600D02*
X0146557Y0142600D01*
X0146557Y0132600D02*
X0153643Y0132600D01*
X0153643Y0122600D02*
X0146557Y0122600D01*
X0146557Y0112600D02*
X0153643Y0112600D01*
X0153643Y0102600D02*
X0146557Y0102600D01*
X0146557Y0060100D02*
X0153643Y0060100D01*
X0153643Y0050100D02*
X0146557Y0050100D01*
X0146557Y0040100D02*
X0153643Y0040100D01*
X0153643Y0030100D02*
X0146557Y0030100D01*
X0146557Y0020100D02*
X0153643Y0020100D01*
X0153643Y0010100D02*
X0146557Y0010100D01*
D22*
X0060100Y0165100D03*
M02*
