G75*
%MOIN*%
%OFA0B0*%
%FSLAX25Y25*%
%IPPOS*%
%LPD*%
%AMOC8*
5,1,8,0,0,1.08239X$1,22.5*
%
%ADD10C,0.00000*%
%ADD11R,0.04921X0.04921*%
%ADD12C,0.04921*%
%ADD13OC8,0.04972*%
%ADD14OC8,0.06300*%
%ADD15C,0.06300*%
%ADD16C,0.04972*%
%ADD17C,0.06000*%
%ADD18C,0.07874*%
%ADD19C,0.07087*%
%ADD20C,0.03200*%
%ADD21C,0.05000*%
%ADD22C,0.02400*%
%ADD23OC8,0.02362*%
D10*
X0002600Y0002600D02*
X0002600Y0238820D01*
X0160080Y0238820D01*
X0160080Y0002600D01*
X0002600Y0002600D01*
X0071600Y0042600D02*
X0071602Y0042718D01*
X0071608Y0042836D01*
X0071618Y0042954D01*
X0071632Y0043071D01*
X0071650Y0043188D01*
X0071672Y0043305D01*
X0071697Y0043420D01*
X0071727Y0043534D01*
X0071761Y0043648D01*
X0071798Y0043760D01*
X0071839Y0043871D01*
X0071884Y0043980D01*
X0071932Y0044088D01*
X0071984Y0044194D01*
X0072040Y0044299D01*
X0072099Y0044401D01*
X0072161Y0044501D01*
X0072227Y0044599D01*
X0072296Y0044695D01*
X0072369Y0044789D01*
X0072444Y0044880D01*
X0072523Y0044968D01*
X0072604Y0045054D01*
X0072689Y0045137D01*
X0072776Y0045217D01*
X0072865Y0045294D01*
X0072958Y0045368D01*
X0073052Y0045438D01*
X0073149Y0045506D01*
X0073249Y0045570D01*
X0073350Y0045631D01*
X0073453Y0045688D01*
X0073559Y0045742D01*
X0073666Y0045793D01*
X0073774Y0045839D01*
X0073884Y0045882D01*
X0073996Y0045921D01*
X0074109Y0045957D01*
X0074223Y0045988D01*
X0074338Y0046016D01*
X0074453Y0046040D01*
X0074570Y0046060D01*
X0074687Y0046076D01*
X0074805Y0046088D01*
X0074923Y0046096D01*
X0075041Y0046100D01*
X0075159Y0046100D01*
X0075277Y0046096D01*
X0075395Y0046088D01*
X0075513Y0046076D01*
X0075630Y0046060D01*
X0075747Y0046040D01*
X0075862Y0046016D01*
X0075977Y0045988D01*
X0076091Y0045957D01*
X0076204Y0045921D01*
X0076316Y0045882D01*
X0076426Y0045839D01*
X0076534Y0045793D01*
X0076641Y0045742D01*
X0076747Y0045688D01*
X0076850Y0045631D01*
X0076951Y0045570D01*
X0077051Y0045506D01*
X0077148Y0045438D01*
X0077242Y0045368D01*
X0077335Y0045294D01*
X0077424Y0045217D01*
X0077511Y0045137D01*
X0077596Y0045054D01*
X0077677Y0044968D01*
X0077756Y0044880D01*
X0077831Y0044789D01*
X0077904Y0044695D01*
X0077973Y0044599D01*
X0078039Y0044501D01*
X0078101Y0044401D01*
X0078160Y0044299D01*
X0078216Y0044194D01*
X0078268Y0044088D01*
X0078316Y0043980D01*
X0078361Y0043871D01*
X0078402Y0043760D01*
X0078439Y0043648D01*
X0078473Y0043534D01*
X0078503Y0043420D01*
X0078528Y0043305D01*
X0078550Y0043188D01*
X0078568Y0043071D01*
X0078582Y0042954D01*
X0078592Y0042836D01*
X0078598Y0042718D01*
X0078600Y0042600D01*
X0078598Y0042482D01*
X0078592Y0042364D01*
X0078582Y0042246D01*
X0078568Y0042129D01*
X0078550Y0042012D01*
X0078528Y0041895D01*
X0078503Y0041780D01*
X0078473Y0041666D01*
X0078439Y0041552D01*
X0078402Y0041440D01*
X0078361Y0041329D01*
X0078316Y0041220D01*
X0078268Y0041112D01*
X0078216Y0041006D01*
X0078160Y0040901D01*
X0078101Y0040799D01*
X0078039Y0040699D01*
X0077973Y0040601D01*
X0077904Y0040505D01*
X0077831Y0040411D01*
X0077756Y0040320D01*
X0077677Y0040232D01*
X0077596Y0040146D01*
X0077511Y0040063D01*
X0077424Y0039983D01*
X0077335Y0039906D01*
X0077242Y0039832D01*
X0077148Y0039762D01*
X0077051Y0039694D01*
X0076951Y0039630D01*
X0076850Y0039569D01*
X0076747Y0039512D01*
X0076641Y0039458D01*
X0076534Y0039407D01*
X0076426Y0039361D01*
X0076316Y0039318D01*
X0076204Y0039279D01*
X0076091Y0039243D01*
X0075977Y0039212D01*
X0075862Y0039184D01*
X0075747Y0039160D01*
X0075630Y0039140D01*
X0075513Y0039124D01*
X0075395Y0039112D01*
X0075277Y0039104D01*
X0075159Y0039100D01*
X0075041Y0039100D01*
X0074923Y0039104D01*
X0074805Y0039112D01*
X0074687Y0039124D01*
X0074570Y0039140D01*
X0074453Y0039160D01*
X0074338Y0039184D01*
X0074223Y0039212D01*
X0074109Y0039243D01*
X0073996Y0039279D01*
X0073884Y0039318D01*
X0073774Y0039361D01*
X0073666Y0039407D01*
X0073559Y0039458D01*
X0073453Y0039512D01*
X0073350Y0039569D01*
X0073249Y0039630D01*
X0073149Y0039694D01*
X0073052Y0039762D01*
X0072958Y0039832D01*
X0072865Y0039906D01*
X0072776Y0039983D01*
X0072689Y0040063D01*
X0072604Y0040146D01*
X0072523Y0040232D01*
X0072444Y0040320D01*
X0072369Y0040411D01*
X0072296Y0040505D01*
X0072227Y0040601D01*
X0072161Y0040699D01*
X0072099Y0040799D01*
X0072040Y0040901D01*
X0071984Y0041006D01*
X0071932Y0041112D01*
X0071884Y0041220D01*
X0071839Y0041329D01*
X0071798Y0041440D01*
X0071761Y0041552D01*
X0071727Y0041666D01*
X0071697Y0041780D01*
X0071672Y0041895D01*
X0071650Y0042012D01*
X0071632Y0042129D01*
X0071618Y0042246D01*
X0071608Y0042364D01*
X0071602Y0042482D01*
X0071600Y0042600D01*
X0098801Y0121100D02*
X0098803Y0121258D01*
X0098809Y0121416D01*
X0098819Y0121574D01*
X0098833Y0121732D01*
X0098851Y0121889D01*
X0098872Y0122046D01*
X0098898Y0122202D01*
X0098928Y0122358D01*
X0098961Y0122513D01*
X0098999Y0122666D01*
X0099040Y0122819D01*
X0099085Y0122971D01*
X0099134Y0123122D01*
X0099187Y0123271D01*
X0099243Y0123419D01*
X0099303Y0123565D01*
X0099367Y0123710D01*
X0099435Y0123853D01*
X0099506Y0123995D01*
X0099580Y0124135D01*
X0099658Y0124272D01*
X0099740Y0124408D01*
X0099824Y0124542D01*
X0099913Y0124673D01*
X0100004Y0124802D01*
X0100099Y0124929D01*
X0100196Y0125054D01*
X0100297Y0125176D01*
X0100401Y0125295D01*
X0100508Y0125412D01*
X0100618Y0125526D01*
X0100731Y0125637D01*
X0100846Y0125746D01*
X0100964Y0125851D01*
X0101085Y0125953D01*
X0101208Y0126053D01*
X0101334Y0126149D01*
X0101462Y0126242D01*
X0101592Y0126332D01*
X0101725Y0126418D01*
X0101860Y0126502D01*
X0101996Y0126581D01*
X0102135Y0126658D01*
X0102276Y0126730D01*
X0102418Y0126800D01*
X0102562Y0126865D01*
X0102708Y0126927D01*
X0102855Y0126985D01*
X0103004Y0127040D01*
X0103154Y0127091D01*
X0103305Y0127138D01*
X0103457Y0127181D01*
X0103610Y0127220D01*
X0103765Y0127256D01*
X0103920Y0127287D01*
X0104076Y0127315D01*
X0104232Y0127339D01*
X0104389Y0127359D01*
X0104547Y0127375D01*
X0104704Y0127387D01*
X0104863Y0127395D01*
X0105021Y0127399D01*
X0105179Y0127399D01*
X0105337Y0127395D01*
X0105496Y0127387D01*
X0105653Y0127375D01*
X0105811Y0127359D01*
X0105968Y0127339D01*
X0106124Y0127315D01*
X0106280Y0127287D01*
X0106435Y0127256D01*
X0106590Y0127220D01*
X0106743Y0127181D01*
X0106895Y0127138D01*
X0107046Y0127091D01*
X0107196Y0127040D01*
X0107345Y0126985D01*
X0107492Y0126927D01*
X0107638Y0126865D01*
X0107782Y0126800D01*
X0107924Y0126730D01*
X0108065Y0126658D01*
X0108204Y0126581D01*
X0108340Y0126502D01*
X0108475Y0126418D01*
X0108608Y0126332D01*
X0108738Y0126242D01*
X0108866Y0126149D01*
X0108992Y0126053D01*
X0109115Y0125953D01*
X0109236Y0125851D01*
X0109354Y0125746D01*
X0109469Y0125637D01*
X0109582Y0125526D01*
X0109692Y0125412D01*
X0109799Y0125295D01*
X0109903Y0125176D01*
X0110004Y0125054D01*
X0110101Y0124929D01*
X0110196Y0124802D01*
X0110287Y0124673D01*
X0110376Y0124542D01*
X0110460Y0124408D01*
X0110542Y0124272D01*
X0110620Y0124135D01*
X0110694Y0123995D01*
X0110765Y0123853D01*
X0110833Y0123710D01*
X0110897Y0123565D01*
X0110957Y0123419D01*
X0111013Y0123271D01*
X0111066Y0123122D01*
X0111115Y0122971D01*
X0111160Y0122819D01*
X0111201Y0122666D01*
X0111239Y0122513D01*
X0111272Y0122358D01*
X0111302Y0122202D01*
X0111328Y0122046D01*
X0111349Y0121889D01*
X0111367Y0121732D01*
X0111381Y0121574D01*
X0111391Y0121416D01*
X0111397Y0121258D01*
X0111399Y0121100D01*
X0111397Y0120942D01*
X0111391Y0120784D01*
X0111381Y0120626D01*
X0111367Y0120468D01*
X0111349Y0120311D01*
X0111328Y0120154D01*
X0111302Y0119998D01*
X0111272Y0119842D01*
X0111239Y0119687D01*
X0111201Y0119534D01*
X0111160Y0119381D01*
X0111115Y0119229D01*
X0111066Y0119078D01*
X0111013Y0118929D01*
X0110957Y0118781D01*
X0110897Y0118635D01*
X0110833Y0118490D01*
X0110765Y0118347D01*
X0110694Y0118205D01*
X0110620Y0118065D01*
X0110542Y0117928D01*
X0110460Y0117792D01*
X0110376Y0117658D01*
X0110287Y0117527D01*
X0110196Y0117398D01*
X0110101Y0117271D01*
X0110004Y0117146D01*
X0109903Y0117024D01*
X0109799Y0116905D01*
X0109692Y0116788D01*
X0109582Y0116674D01*
X0109469Y0116563D01*
X0109354Y0116454D01*
X0109236Y0116349D01*
X0109115Y0116247D01*
X0108992Y0116147D01*
X0108866Y0116051D01*
X0108738Y0115958D01*
X0108608Y0115868D01*
X0108475Y0115782D01*
X0108340Y0115698D01*
X0108204Y0115619D01*
X0108065Y0115542D01*
X0107924Y0115470D01*
X0107782Y0115400D01*
X0107638Y0115335D01*
X0107492Y0115273D01*
X0107345Y0115215D01*
X0107196Y0115160D01*
X0107046Y0115109D01*
X0106895Y0115062D01*
X0106743Y0115019D01*
X0106590Y0114980D01*
X0106435Y0114944D01*
X0106280Y0114913D01*
X0106124Y0114885D01*
X0105968Y0114861D01*
X0105811Y0114841D01*
X0105653Y0114825D01*
X0105496Y0114813D01*
X0105337Y0114805D01*
X0105179Y0114801D01*
X0105021Y0114801D01*
X0104863Y0114805D01*
X0104704Y0114813D01*
X0104547Y0114825D01*
X0104389Y0114841D01*
X0104232Y0114861D01*
X0104076Y0114885D01*
X0103920Y0114913D01*
X0103765Y0114944D01*
X0103610Y0114980D01*
X0103457Y0115019D01*
X0103305Y0115062D01*
X0103154Y0115109D01*
X0103004Y0115160D01*
X0102855Y0115215D01*
X0102708Y0115273D01*
X0102562Y0115335D01*
X0102418Y0115400D01*
X0102276Y0115470D01*
X0102135Y0115542D01*
X0101996Y0115619D01*
X0101860Y0115698D01*
X0101725Y0115782D01*
X0101592Y0115868D01*
X0101462Y0115958D01*
X0101334Y0116051D01*
X0101208Y0116147D01*
X0101085Y0116247D01*
X0100964Y0116349D01*
X0100846Y0116454D01*
X0100731Y0116563D01*
X0100618Y0116674D01*
X0100508Y0116788D01*
X0100401Y0116905D01*
X0100297Y0117024D01*
X0100196Y0117146D01*
X0100099Y0117271D01*
X0100004Y0117398D01*
X0099913Y0117527D01*
X0099824Y0117658D01*
X0099740Y0117792D01*
X0099658Y0117928D01*
X0099580Y0118065D01*
X0099506Y0118205D01*
X0099435Y0118347D01*
X0099367Y0118490D01*
X0099303Y0118635D01*
X0099243Y0118781D01*
X0099187Y0118929D01*
X0099134Y0119078D01*
X0099085Y0119229D01*
X0099040Y0119381D01*
X0098999Y0119534D01*
X0098961Y0119687D01*
X0098928Y0119842D01*
X0098898Y0119998D01*
X0098872Y0120154D01*
X0098851Y0120311D01*
X0098833Y0120468D01*
X0098819Y0120626D01*
X0098809Y0120784D01*
X0098803Y0120942D01*
X0098801Y0121100D01*
X0098600Y0121100D02*
X0098602Y0121261D01*
X0098608Y0121421D01*
X0098618Y0121582D01*
X0098632Y0121742D01*
X0098650Y0121902D01*
X0098671Y0122061D01*
X0098697Y0122220D01*
X0098727Y0122378D01*
X0098760Y0122535D01*
X0098798Y0122692D01*
X0098839Y0122847D01*
X0098884Y0123001D01*
X0098933Y0123154D01*
X0098986Y0123306D01*
X0099042Y0123457D01*
X0099103Y0123606D01*
X0099166Y0123754D01*
X0099234Y0123900D01*
X0099305Y0124044D01*
X0099379Y0124186D01*
X0099457Y0124327D01*
X0099539Y0124465D01*
X0099624Y0124602D01*
X0099712Y0124736D01*
X0099804Y0124868D01*
X0099899Y0124998D01*
X0099997Y0125126D01*
X0100098Y0125251D01*
X0100202Y0125373D01*
X0100309Y0125493D01*
X0100419Y0125610D01*
X0100532Y0125725D01*
X0100648Y0125836D01*
X0100767Y0125945D01*
X0100888Y0126050D01*
X0101012Y0126153D01*
X0101138Y0126253D01*
X0101266Y0126349D01*
X0101397Y0126442D01*
X0101531Y0126532D01*
X0101666Y0126619D01*
X0101804Y0126702D01*
X0101943Y0126782D01*
X0102085Y0126858D01*
X0102228Y0126931D01*
X0102373Y0127000D01*
X0102520Y0127066D01*
X0102668Y0127128D01*
X0102818Y0127186D01*
X0102969Y0127241D01*
X0103122Y0127292D01*
X0103276Y0127339D01*
X0103431Y0127382D01*
X0103587Y0127421D01*
X0103743Y0127457D01*
X0103901Y0127488D01*
X0104059Y0127516D01*
X0104218Y0127540D01*
X0104378Y0127560D01*
X0104538Y0127576D01*
X0104698Y0127588D01*
X0104859Y0127596D01*
X0105020Y0127600D01*
X0105180Y0127600D01*
X0105341Y0127596D01*
X0105502Y0127588D01*
X0105662Y0127576D01*
X0105822Y0127560D01*
X0105982Y0127540D01*
X0106141Y0127516D01*
X0106299Y0127488D01*
X0106457Y0127457D01*
X0106613Y0127421D01*
X0106769Y0127382D01*
X0106924Y0127339D01*
X0107078Y0127292D01*
X0107231Y0127241D01*
X0107382Y0127186D01*
X0107532Y0127128D01*
X0107680Y0127066D01*
X0107827Y0127000D01*
X0107972Y0126931D01*
X0108115Y0126858D01*
X0108257Y0126782D01*
X0108396Y0126702D01*
X0108534Y0126619D01*
X0108669Y0126532D01*
X0108803Y0126442D01*
X0108934Y0126349D01*
X0109062Y0126253D01*
X0109188Y0126153D01*
X0109312Y0126050D01*
X0109433Y0125945D01*
X0109552Y0125836D01*
X0109668Y0125725D01*
X0109781Y0125610D01*
X0109891Y0125493D01*
X0109998Y0125373D01*
X0110102Y0125251D01*
X0110203Y0125126D01*
X0110301Y0124998D01*
X0110396Y0124868D01*
X0110488Y0124736D01*
X0110576Y0124602D01*
X0110661Y0124465D01*
X0110743Y0124327D01*
X0110821Y0124186D01*
X0110895Y0124044D01*
X0110966Y0123900D01*
X0111034Y0123754D01*
X0111097Y0123606D01*
X0111158Y0123457D01*
X0111214Y0123306D01*
X0111267Y0123154D01*
X0111316Y0123001D01*
X0111361Y0122847D01*
X0111402Y0122692D01*
X0111440Y0122535D01*
X0111473Y0122378D01*
X0111503Y0122220D01*
X0111529Y0122061D01*
X0111550Y0121902D01*
X0111568Y0121742D01*
X0111582Y0121582D01*
X0111592Y0121421D01*
X0111598Y0121261D01*
X0111600Y0121100D01*
X0111598Y0120939D01*
X0111592Y0120779D01*
X0111582Y0120618D01*
X0111568Y0120458D01*
X0111550Y0120298D01*
X0111529Y0120139D01*
X0111503Y0119980D01*
X0111473Y0119822D01*
X0111440Y0119665D01*
X0111402Y0119508D01*
X0111361Y0119353D01*
X0111316Y0119199D01*
X0111267Y0119046D01*
X0111214Y0118894D01*
X0111158Y0118743D01*
X0111097Y0118594D01*
X0111034Y0118446D01*
X0110966Y0118300D01*
X0110895Y0118156D01*
X0110821Y0118014D01*
X0110743Y0117873D01*
X0110661Y0117735D01*
X0110576Y0117598D01*
X0110488Y0117464D01*
X0110396Y0117332D01*
X0110301Y0117202D01*
X0110203Y0117074D01*
X0110102Y0116949D01*
X0109998Y0116827D01*
X0109891Y0116707D01*
X0109781Y0116590D01*
X0109668Y0116475D01*
X0109552Y0116364D01*
X0109433Y0116255D01*
X0109312Y0116150D01*
X0109188Y0116047D01*
X0109062Y0115947D01*
X0108934Y0115851D01*
X0108803Y0115758D01*
X0108669Y0115668D01*
X0108534Y0115581D01*
X0108396Y0115498D01*
X0108257Y0115418D01*
X0108115Y0115342D01*
X0107972Y0115269D01*
X0107827Y0115200D01*
X0107680Y0115134D01*
X0107532Y0115072D01*
X0107382Y0115014D01*
X0107231Y0114959D01*
X0107078Y0114908D01*
X0106924Y0114861D01*
X0106769Y0114818D01*
X0106613Y0114779D01*
X0106457Y0114743D01*
X0106299Y0114712D01*
X0106141Y0114684D01*
X0105982Y0114660D01*
X0105822Y0114640D01*
X0105662Y0114624D01*
X0105502Y0114612D01*
X0105341Y0114604D01*
X0105180Y0114600D01*
X0105020Y0114600D01*
X0104859Y0114604D01*
X0104698Y0114612D01*
X0104538Y0114624D01*
X0104378Y0114640D01*
X0104218Y0114660D01*
X0104059Y0114684D01*
X0103901Y0114712D01*
X0103743Y0114743D01*
X0103587Y0114779D01*
X0103431Y0114818D01*
X0103276Y0114861D01*
X0103122Y0114908D01*
X0102969Y0114959D01*
X0102818Y0115014D01*
X0102668Y0115072D01*
X0102520Y0115134D01*
X0102373Y0115200D01*
X0102228Y0115269D01*
X0102085Y0115342D01*
X0101943Y0115418D01*
X0101804Y0115498D01*
X0101666Y0115581D01*
X0101531Y0115668D01*
X0101397Y0115758D01*
X0101266Y0115851D01*
X0101138Y0115947D01*
X0101012Y0116047D01*
X0100888Y0116150D01*
X0100767Y0116255D01*
X0100648Y0116364D01*
X0100532Y0116475D01*
X0100419Y0116590D01*
X0100309Y0116707D01*
X0100202Y0116827D01*
X0100098Y0116949D01*
X0099997Y0117074D01*
X0099899Y0117202D01*
X0099804Y0117332D01*
X0099712Y0117464D01*
X0099624Y0117598D01*
X0099539Y0117735D01*
X0099457Y0117873D01*
X0099379Y0118014D01*
X0099305Y0118156D01*
X0099234Y0118300D01*
X0099166Y0118446D01*
X0099103Y0118594D01*
X0099042Y0118743D01*
X0098986Y0118894D01*
X0098933Y0119046D01*
X0098884Y0119199D01*
X0098839Y0119353D01*
X0098798Y0119508D01*
X0098760Y0119665D01*
X0098727Y0119822D01*
X0098697Y0119980D01*
X0098671Y0120139D01*
X0098650Y0120298D01*
X0098632Y0120458D01*
X0098618Y0120618D01*
X0098608Y0120779D01*
X0098602Y0120939D01*
X0098600Y0121100D01*
X0131600Y0042600D02*
X0131602Y0042718D01*
X0131608Y0042836D01*
X0131618Y0042954D01*
X0131632Y0043071D01*
X0131650Y0043188D01*
X0131672Y0043305D01*
X0131697Y0043420D01*
X0131727Y0043534D01*
X0131761Y0043648D01*
X0131798Y0043760D01*
X0131839Y0043871D01*
X0131884Y0043980D01*
X0131932Y0044088D01*
X0131984Y0044194D01*
X0132040Y0044299D01*
X0132099Y0044401D01*
X0132161Y0044501D01*
X0132227Y0044599D01*
X0132296Y0044695D01*
X0132369Y0044789D01*
X0132444Y0044880D01*
X0132523Y0044968D01*
X0132604Y0045054D01*
X0132689Y0045137D01*
X0132776Y0045217D01*
X0132865Y0045294D01*
X0132958Y0045368D01*
X0133052Y0045438D01*
X0133149Y0045506D01*
X0133249Y0045570D01*
X0133350Y0045631D01*
X0133453Y0045688D01*
X0133559Y0045742D01*
X0133666Y0045793D01*
X0133774Y0045839D01*
X0133884Y0045882D01*
X0133996Y0045921D01*
X0134109Y0045957D01*
X0134223Y0045988D01*
X0134338Y0046016D01*
X0134453Y0046040D01*
X0134570Y0046060D01*
X0134687Y0046076D01*
X0134805Y0046088D01*
X0134923Y0046096D01*
X0135041Y0046100D01*
X0135159Y0046100D01*
X0135277Y0046096D01*
X0135395Y0046088D01*
X0135513Y0046076D01*
X0135630Y0046060D01*
X0135747Y0046040D01*
X0135862Y0046016D01*
X0135977Y0045988D01*
X0136091Y0045957D01*
X0136204Y0045921D01*
X0136316Y0045882D01*
X0136426Y0045839D01*
X0136534Y0045793D01*
X0136641Y0045742D01*
X0136747Y0045688D01*
X0136850Y0045631D01*
X0136951Y0045570D01*
X0137051Y0045506D01*
X0137148Y0045438D01*
X0137242Y0045368D01*
X0137335Y0045294D01*
X0137424Y0045217D01*
X0137511Y0045137D01*
X0137596Y0045054D01*
X0137677Y0044968D01*
X0137756Y0044880D01*
X0137831Y0044789D01*
X0137904Y0044695D01*
X0137973Y0044599D01*
X0138039Y0044501D01*
X0138101Y0044401D01*
X0138160Y0044299D01*
X0138216Y0044194D01*
X0138268Y0044088D01*
X0138316Y0043980D01*
X0138361Y0043871D01*
X0138402Y0043760D01*
X0138439Y0043648D01*
X0138473Y0043534D01*
X0138503Y0043420D01*
X0138528Y0043305D01*
X0138550Y0043188D01*
X0138568Y0043071D01*
X0138582Y0042954D01*
X0138592Y0042836D01*
X0138598Y0042718D01*
X0138600Y0042600D01*
X0138598Y0042482D01*
X0138592Y0042364D01*
X0138582Y0042246D01*
X0138568Y0042129D01*
X0138550Y0042012D01*
X0138528Y0041895D01*
X0138503Y0041780D01*
X0138473Y0041666D01*
X0138439Y0041552D01*
X0138402Y0041440D01*
X0138361Y0041329D01*
X0138316Y0041220D01*
X0138268Y0041112D01*
X0138216Y0041006D01*
X0138160Y0040901D01*
X0138101Y0040799D01*
X0138039Y0040699D01*
X0137973Y0040601D01*
X0137904Y0040505D01*
X0137831Y0040411D01*
X0137756Y0040320D01*
X0137677Y0040232D01*
X0137596Y0040146D01*
X0137511Y0040063D01*
X0137424Y0039983D01*
X0137335Y0039906D01*
X0137242Y0039832D01*
X0137148Y0039762D01*
X0137051Y0039694D01*
X0136951Y0039630D01*
X0136850Y0039569D01*
X0136747Y0039512D01*
X0136641Y0039458D01*
X0136534Y0039407D01*
X0136426Y0039361D01*
X0136316Y0039318D01*
X0136204Y0039279D01*
X0136091Y0039243D01*
X0135977Y0039212D01*
X0135862Y0039184D01*
X0135747Y0039160D01*
X0135630Y0039140D01*
X0135513Y0039124D01*
X0135395Y0039112D01*
X0135277Y0039104D01*
X0135159Y0039100D01*
X0135041Y0039100D01*
X0134923Y0039104D01*
X0134805Y0039112D01*
X0134687Y0039124D01*
X0134570Y0039140D01*
X0134453Y0039160D01*
X0134338Y0039184D01*
X0134223Y0039212D01*
X0134109Y0039243D01*
X0133996Y0039279D01*
X0133884Y0039318D01*
X0133774Y0039361D01*
X0133666Y0039407D01*
X0133559Y0039458D01*
X0133453Y0039512D01*
X0133350Y0039569D01*
X0133249Y0039630D01*
X0133149Y0039694D01*
X0133052Y0039762D01*
X0132958Y0039832D01*
X0132865Y0039906D01*
X0132776Y0039983D01*
X0132689Y0040063D01*
X0132604Y0040146D01*
X0132523Y0040232D01*
X0132444Y0040320D01*
X0132369Y0040411D01*
X0132296Y0040505D01*
X0132227Y0040601D01*
X0132161Y0040699D01*
X0132099Y0040799D01*
X0132040Y0040901D01*
X0131984Y0041006D01*
X0131932Y0041112D01*
X0131884Y0041220D01*
X0131839Y0041329D01*
X0131798Y0041440D01*
X0131761Y0041552D01*
X0131727Y0041666D01*
X0131697Y0041780D01*
X0131672Y0041895D01*
X0131650Y0042012D01*
X0131632Y0042129D01*
X0131618Y0042246D01*
X0131608Y0042364D01*
X0131602Y0042482D01*
X0131600Y0042600D01*
X0131600Y0202600D02*
X0131602Y0202718D01*
X0131608Y0202836D01*
X0131618Y0202954D01*
X0131632Y0203071D01*
X0131650Y0203188D01*
X0131672Y0203305D01*
X0131697Y0203420D01*
X0131727Y0203534D01*
X0131761Y0203648D01*
X0131798Y0203760D01*
X0131839Y0203871D01*
X0131884Y0203980D01*
X0131932Y0204088D01*
X0131984Y0204194D01*
X0132040Y0204299D01*
X0132099Y0204401D01*
X0132161Y0204501D01*
X0132227Y0204599D01*
X0132296Y0204695D01*
X0132369Y0204789D01*
X0132444Y0204880D01*
X0132523Y0204968D01*
X0132604Y0205054D01*
X0132689Y0205137D01*
X0132776Y0205217D01*
X0132865Y0205294D01*
X0132958Y0205368D01*
X0133052Y0205438D01*
X0133149Y0205506D01*
X0133249Y0205570D01*
X0133350Y0205631D01*
X0133453Y0205688D01*
X0133559Y0205742D01*
X0133666Y0205793D01*
X0133774Y0205839D01*
X0133884Y0205882D01*
X0133996Y0205921D01*
X0134109Y0205957D01*
X0134223Y0205988D01*
X0134338Y0206016D01*
X0134453Y0206040D01*
X0134570Y0206060D01*
X0134687Y0206076D01*
X0134805Y0206088D01*
X0134923Y0206096D01*
X0135041Y0206100D01*
X0135159Y0206100D01*
X0135277Y0206096D01*
X0135395Y0206088D01*
X0135513Y0206076D01*
X0135630Y0206060D01*
X0135747Y0206040D01*
X0135862Y0206016D01*
X0135977Y0205988D01*
X0136091Y0205957D01*
X0136204Y0205921D01*
X0136316Y0205882D01*
X0136426Y0205839D01*
X0136534Y0205793D01*
X0136641Y0205742D01*
X0136747Y0205688D01*
X0136850Y0205631D01*
X0136951Y0205570D01*
X0137051Y0205506D01*
X0137148Y0205438D01*
X0137242Y0205368D01*
X0137335Y0205294D01*
X0137424Y0205217D01*
X0137511Y0205137D01*
X0137596Y0205054D01*
X0137677Y0204968D01*
X0137756Y0204880D01*
X0137831Y0204789D01*
X0137904Y0204695D01*
X0137973Y0204599D01*
X0138039Y0204501D01*
X0138101Y0204401D01*
X0138160Y0204299D01*
X0138216Y0204194D01*
X0138268Y0204088D01*
X0138316Y0203980D01*
X0138361Y0203871D01*
X0138402Y0203760D01*
X0138439Y0203648D01*
X0138473Y0203534D01*
X0138503Y0203420D01*
X0138528Y0203305D01*
X0138550Y0203188D01*
X0138568Y0203071D01*
X0138582Y0202954D01*
X0138592Y0202836D01*
X0138598Y0202718D01*
X0138600Y0202600D01*
X0138598Y0202482D01*
X0138592Y0202364D01*
X0138582Y0202246D01*
X0138568Y0202129D01*
X0138550Y0202012D01*
X0138528Y0201895D01*
X0138503Y0201780D01*
X0138473Y0201666D01*
X0138439Y0201552D01*
X0138402Y0201440D01*
X0138361Y0201329D01*
X0138316Y0201220D01*
X0138268Y0201112D01*
X0138216Y0201006D01*
X0138160Y0200901D01*
X0138101Y0200799D01*
X0138039Y0200699D01*
X0137973Y0200601D01*
X0137904Y0200505D01*
X0137831Y0200411D01*
X0137756Y0200320D01*
X0137677Y0200232D01*
X0137596Y0200146D01*
X0137511Y0200063D01*
X0137424Y0199983D01*
X0137335Y0199906D01*
X0137242Y0199832D01*
X0137148Y0199762D01*
X0137051Y0199694D01*
X0136951Y0199630D01*
X0136850Y0199569D01*
X0136747Y0199512D01*
X0136641Y0199458D01*
X0136534Y0199407D01*
X0136426Y0199361D01*
X0136316Y0199318D01*
X0136204Y0199279D01*
X0136091Y0199243D01*
X0135977Y0199212D01*
X0135862Y0199184D01*
X0135747Y0199160D01*
X0135630Y0199140D01*
X0135513Y0199124D01*
X0135395Y0199112D01*
X0135277Y0199104D01*
X0135159Y0199100D01*
X0135041Y0199100D01*
X0134923Y0199104D01*
X0134805Y0199112D01*
X0134687Y0199124D01*
X0134570Y0199140D01*
X0134453Y0199160D01*
X0134338Y0199184D01*
X0134223Y0199212D01*
X0134109Y0199243D01*
X0133996Y0199279D01*
X0133884Y0199318D01*
X0133774Y0199361D01*
X0133666Y0199407D01*
X0133559Y0199458D01*
X0133453Y0199512D01*
X0133350Y0199569D01*
X0133249Y0199630D01*
X0133149Y0199694D01*
X0133052Y0199762D01*
X0132958Y0199832D01*
X0132865Y0199906D01*
X0132776Y0199983D01*
X0132689Y0200063D01*
X0132604Y0200146D01*
X0132523Y0200232D01*
X0132444Y0200320D01*
X0132369Y0200411D01*
X0132296Y0200505D01*
X0132227Y0200601D01*
X0132161Y0200699D01*
X0132099Y0200799D01*
X0132040Y0200901D01*
X0131984Y0201006D01*
X0131932Y0201112D01*
X0131884Y0201220D01*
X0131839Y0201329D01*
X0131798Y0201440D01*
X0131761Y0201552D01*
X0131727Y0201666D01*
X0131697Y0201780D01*
X0131672Y0201895D01*
X0131650Y0202012D01*
X0131632Y0202129D01*
X0131618Y0202246D01*
X0131608Y0202364D01*
X0131602Y0202482D01*
X0131600Y0202600D01*
X0071600Y0202600D02*
X0071602Y0202718D01*
X0071608Y0202836D01*
X0071618Y0202954D01*
X0071632Y0203071D01*
X0071650Y0203188D01*
X0071672Y0203305D01*
X0071697Y0203420D01*
X0071727Y0203534D01*
X0071761Y0203648D01*
X0071798Y0203760D01*
X0071839Y0203871D01*
X0071884Y0203980D01*
X0071932Y0204088D01*
X0071984Y0204194D01*
X0072040Y0204299D01*
X0072099Y0204401D01*
X0072161Y0204501D01*
X0072227Y0204599D01*
X0072296Y0204695D01*
X0072369Y0204789D01*
X0072444Y0204880D01*
X0072523Y0204968D01*
X0072604Y0205054D01*
X0072689Y0205137D01*
X0072776Y0205217D01*
X0072865Y0205294D01*
X0072958Y0205368D01*
X0073052Y0205438D01*
X0073149Y0205506D01*
X0073249Y0205570D01*
X0073350Y0205631D01*
X0073453Y0205688D01*
X0073559Y0205742D01*
X0073666Y0205793D01*
X0073774Y0205839D01*
X0073884Y0205882D01*
X0073996Y0205921D01*
X0074109Y0205957D01*
X0074223Y0205988D01*
X0074338Y0206016D01*
X0074453Y0206040D01*
X0074570Y0206060D01*
X0074687Y0206076D01*
X0074805Y0206088D01*
X0074923Y0206096D01*
X0075041Y0206100D01*
X0075159Y0206100D01*
X0075277Y0206096D01*
X0075395Y0206088D01*
X0075513Y0206076D01*
X0075630Y0206060D01*
X0075747Y0206040D01*
X0075862Y0206016D01*
X0075977Y0205988D01*
X0076091Y0205957D01*
X0076204Y0205921D01*
X0076316Y0205882D01*
X0076426Y0205839D01*
X0076534Y0205793D01*
X0076641Y0205742D01*
X0076747Y0205688D01*
X0076850Y0205631D01*
X0076951Y0205570D01*
X0077051Y0205506D01*
X0077148Y0205438D01*
X0077242Y0205368D01*
X0077335Y0205294D01*
X0077424Y0205217D01*
X0077511Y0205137D01*
X0077596Y0205054D01*
X0077677Y0204968D01*
X0077756Y0204880D01*
X0077831Y0204789D01*
X0077904Y0204695D01*
X0077973Y0204599D01*
X0078039Y0204501D01*
X0078101Y0204401D01*
X0078160Y0204299D01*
X0078216Y0204194D01*
X0078268Y0204088D01*
X0078316Y0203980D01*
X0078361Y0203871D01*
X0078402Y0203760D01*
X0078439Y0203648D01*
X0078473Y0203534D01*
X0078503Y0203420D01*
X0078528Y0203305D01*
X0078550Y0203188D01*
X0078568Y0203071D01*
X0078582Y0202954D01*
X0078592Y0202836D01*
X0078598Y0202718D01*
X0078600Y0202600D01*
X0078598Y0202482D01*
X0078592Y0202364D01*
X0078582Y0202246D01*
X0078568Y0202129D01*
X0078550Y0202012D01*
X0078528Y0201895D01*
X0078503Y0201780D01*
X0078473Y0201666D01*
X0078439Y0201552D01*
X0078402Y0201440D01*
X0078361Y0201329D01*
X0078316Y0201220D01*
X0078268Y0201112D01*
X0078216Y0201006D01*
X0078160Y0200901D01*
X0078101Y0200799D01*
X0078039Y0200699D01*
X0077973Y0200601D01*
X0077904Y0200505D01*
X0077831Y0200411D01*
X0077756Y0200320D01*
X0077677Y0200232D01*
X0077596Y0200146D01*
X0077511Y0200063D01*
X0077424Y0199983D01*
X0077335Y0199906D01*
X0077242Y0199832D01*
X0077148Y0199762D01*
X0077051Y0199694D01*
X0076951Y0199630D01*
X0076850Y0199569D01*
X0076747Y0199512D01*
X0076641Y0199458D01*
X0076534Y0199407D01*
X0076426Y0199361D01*
X0076316Y0199318D01*
X0076204Y0199279D01*
X0076091Y0199243D01*
X0075977Y0199212D01*
X0075862Y0199184D01*
X0075747Y0199160D01*
X0075630Y0199140D01*
X0075513Y0199124D01*
X0075395Y0199112D01*
X0075277Y0199104D01*
X0075159Y0199100D01*
X0075041Y0199100D01*
X0074923Y0199104D01*
X0074805Y0199112D01*
X0074687Y0199124D01*
X0074570Y0199140D01*
X0074453Y0199160D01*
X0074338Y0199184D01*
X0074223Y0199212D01*
X0074109Y0199243D01*
X0073996Y0199279D01*
X0073884Y0199318D01*
X0073774Y0199361D01*
X0073666Y0199407D01*
X0073559Y0199458D01*
X0073453Y0199512D01*
X0073350Y0199569D01*
X0073249Y0199630D01*
X0073149Y0199694D01*
X0073052Y0199762D01*
X0072958Y0199832D01*
X0072865Y0199906D01*
X0072776Y0199983D01*
X0072689Y0200063D01*
X0072604Y0200146D01*
X0072523Y0200232D01*
X0072444Y0200320D01*
X0072369Y0200411D01*
X0072296Y0200505D01*
X0072227Y0200601D01*
X0072161Y0200699D01*
X0072099Y0200799D01*
X0072040Y0200901D01*
X0071984Y0201006D01*
X0071932Y0201112D01*
X0071884Y0201220D01*
X0071839Y0201329D01*
X0071798Y0201440D01*
X0071761Y0201552D01*
X0071727Y0201666D01*
X0071697Y0201780D01*
X0071672Y0201895D01*
X0071650Y0202012D01*
X0071632Y0202129D01*
X0071618Y0202246D01*
X0071608Y0202364D01*
X0071602Y0202482D01*
X0071600Y0202600D01*
D11*
X0135100Y0052600D03*
D12*
X0135100Y0062600D03*
X0135100Y0072600D03*
X0135100Y0082600D03*
X0135100Y0092600D03*
X0135100Y0102600D03*
X0135100Y0112600D03*
X0135100Y0122600D03*
X0135100Y0132600D03*
X0135100Y0142600D03*
X0135100Y0152600D03*
X0135100Y0162600D03*
X0135100Y0172600D03*
X0135100Y0182600D03*
X0135100Y0192600D03*
X0075100Y0192600D03*
X0075100Y0182600D03*
X0075100Y0172600D03*
X0075100Y0162600D03*
X0075100Y0152600D03*
X0075100Y0142600D03*
X0075100Y0132600D03*
X0075100Y0122600D03*
X0075100Y0112600D03*
X0075100Y0102600D03*
X0075100Y0092600D03*
X0075100Y0082600D03*
X0075100Y0072600D03*
X0075100Y0062600D03*
X0075100Y0052600D03*
D13*
X0062600Y0057600D03*
X0062600Y0070100D03*
X0052600Y0070100D03*
X0052600Y0057600D03*
X0040100Y0052600D03*
X0040100Y0042600D03*
X0040100Y0062600D03*
X0040100Y0072600D03*
X0025100Y0072600D03*
X0015100Y0072600D03*
X0022600Y0057600D03*
X0022600Y0047600D03*
X0052600Y0123850D03*
X0052600Y0133850D03*
X0045100Y0132600D03*
X0047600Y0145100D03*
X0055100Y0145100D03*
X0062600Y0137600D03*
X0065100Y0145100D03*
X0062600Y0127600D03*
X0047600Y0155100D03*
X0040100Y0145100D03*
X0030100Y0145100D03*
X0022600Y0140100D03*
X0015100Y0140100D03*
X0015100Y0130100D03*
X0022600Y0130100D03*
X0035100Y0132600D03*
X0022600Y0152600D03*
X0012600Y0152600D03*
X0022600Y0172600D03*
X0015100Y0175100D03*
X0015100Y0185100D03*
X0022600Y0182600D03*
X0060100Y0190100D03*
X0060100Y0200100D03*
X0087600Y0197600D03*
X0097600Y0197600D03*
X0095100Y0212600D03*
X0095100Y0222600D03*
X0112600Y0197600D03*
X0122600Y0197600D03*
X0150100Y0195100D03*
X0150100Y0185100D03*
X0125100Y0077600D03*
X0115100Y0077600D03*
D14*
X0120100Y0222600D03*
X0147600Y0222600D03*
D15*
X0137600Y0222600D03*
X0110100Y0222600D03*
D16*
X0050086Y0165100D02*
X0045114Y0165100D01*
X0020086Y0165100D02*
X0015114Y0165100D01*
X0015100Y0120086D02*
X0015100Y0115114D01*
X0030100Y0117586D02*
X0030100Y0112614D01*
X0040100Y0112614D02*
X0040100Y0117586D01*
X0050100Y0117586D02*
X0050100Y0112614D01*
X0060100Y0112614D02*
X0060100Y0117586D01*
X0060100Y0087586D02*
X0060100Y0082614D01*
X0050100Y0082614D02*
X0050100Y0087586D01*
X0040100Y0087586D02*
X0040100Y0082614D01*
X0030100Y0082614D02*
X0030100Y0087586D01*
X0015100Y0085114D02*
X0015100Y0090086D01*
X0147614Y0092600D02*
X0152586Y0092600D01*
X0152586Y0082600D02*
X0147614Y0082600D01*
X0147614Y0072600D02*
X0152586Y0072600D01*
D17*
X0115100Y0177100D02*
X0115100Y0183100D01*
X0105100Y0183100D02*
X0105100Y0177100D01*
X0095100Y0177100D02*
X0095100Y0183100D01*
D18*
X0042517Y0222698D03*
X0022517Y0222698D03*
X0025017Y0020198D03*
X0045017Y0020198D03*
X0065017Y0020198D03*
X0085017Y0020198D03*
X0105017Y0020198D03*
X0125017Y0020198D03*
D19*
X0146557Y0020100D02*
X0153643Y0020100D01*
X0153643Y0010100D02*
X0146557Y0010100D01*
X0146557Y0030100D02*
X0153643Y0030100D01*
X0153643Y0040100D02*
X0146557Y0040100D01*
X0146557Y0050100D02*
X0153643Y0050100D01*
X0153643Y0060100D02*
X0146557Y0060100D01*
X0146557Y0102600D02*
X0153643Y0102600D01*
X0153643Y0112600D02*
X0146557Y0112600D01*
X0146557Y0122600D02*
X0153643Y0122600D01*
X0153643Y0132600D02*
X0146557Y0132600D01*
X0146557Y0142600D02*
X0153643Y0142600D01*
X0153643Y0152600D02*
X0146557Y0152600D01*
X0146557Y0162600D02*
X0153643Y0162600D01*
X0153643Y0172600D02*
X0146557Y0172600D01*
X0083643Y0212600D02*
X0076557Y0212600D01*
X0076557Y0222600D02*
X0083643Y0222600D01*
X0066143Y0222600D02*
X0059057Y0222600D01*
X0059057Y0212600D02*
X0066143Y0212600D01*
X0045100Y0201143D02*
X0045100Y0194057D01*
X0035100Y0194057D02*
X0035100Y0201143D01*
X0025100Y0201143D02*
X0025100Y0194057D01*
X0015100Y0194057D02*
X0015100Y0201143D01*
D20*
X0015100Y0200908D02*
X0015100Y0200908D01*
X0015100Y0197709D02*
X0015100Y0197709D01*
X0015100Y0197600D02*
X0015100Y0207468D01*
X0014602Y0207468D01*
X0013619Y0207312D01*
X0012672Y0207004D01*
X0011785Y0206552D01*
X0010980Y0205967D01*
X0010276Y0205263D01*
X0009691Y0204458D01*
X0009239Y0203571D01*
X0008931Y0202624D01*
X0008776Y0201641D01*
X0008776Y0197600D01*
X0008776Y0193559D01*
X0008931Y0192576D01*
X0009239Y0191629D01*
X0009691Y0190742D01*
X0010276Y0189937D01*
X0010980Y0189233D01*
X0011103Y0189144D01*
X0009414Y0187455D01*
X0009414Y0182745D01*
X0012059Y0180100D01*
X0009414Y0177455D01*
X0009414Y0172745D01*
X0012138Y0170021D01*
X0011893Y0169920D01*
X0010294Y0168321D01*
X0009428Y0166231D01*
X0009428Y0163969D01*
X0010294Y0161879D01*
X0011893Y0160280D01*
X0013983Y0159414D01*
X0021217Y0159414D01*
X0023307Y0160280D01*
X0024906Y0161879D01*
X0025772Y0163969D01*
X0025772Y0166231D01*
X0025332Y0167291D01*
X0026241Y0168200D01*
X0040244Y0168200D01*
X0039428Y0166231D01*
X0039428Y0163969D01*
X0040294Y0161879D01*
X0041893Y0160280D01*
X0043905Y0159446D01*
X0041914Y0157455D01*
X0041914Y0152745D01*
X0044559Y0150100D01*
X0043850Y0149391D01*
X0042455Y0150786D01*
X0037745Y0150786D01*
X0035100Y0148141D01*
X0032455Y0150786D01*
X0028286Y0150786D01*
X0028286Y0154955D01*
X0024955Y0158286D01*
X0020245Y0158286D01*
X0017304Y0155345D01*
X0014782Y0157867D01*
X0012600Y0157867D01*
X0012600Y0152600D01*
X0012600Y0152600D01*
X0012600Y0147333D01*
X0014782Y0147333D01*
X0017304Y0149855D01*
X0020245Y0146914D01*
X0024414Y0146914D01*
X0024414Y0145786D01*
X0020245Y0145786D01*
X0018850Y0144391D01*
X0017455Y0145786D01*
X0012745Y0145786D01*
X0009414Y0142455D01*
X0009414Y0137745D01*
X0012059Y0135100D01*
X0009414Y0132455D01*
X0009414Y0127745D01*
X0010300Y0126859D01*
X0010300Y0123327D01*
X0010280Y0123307D01*
X0009414Y0121217D01*
X0009414Y0113983D01*
X0010280Y0111893D01*
X0011879Y0110294D01*
X0013969Y0109428D01*
X0013983Y0109428D01*
X0030140Y0093272D01*
X0028969Y0093272D01*
X0026879Y0092406D01*
X0025280Y0090807D01*
X0024414Y0088717D01*
X0024414Y0081483D01*
X0025280Y0079393D01*
X0026387Y0078286D01*
X0022745Y0078286D01*
X0020100Y0075641D01*
X0017455Y0078286D01*
X0012745Y0078286D01*
X0009414Y0074955D01*
X0009414Y0070245D01*
X0012745Y0066914D01*
X0017455Y0066914D01*
X0020100Y0069559D01*
X0022745Y0066914D01*
X0027455Y0066914D01*
X0030786Y0070245D01*
X0030786Y0074955D01*
X0028702Y0077039D01*
X0028969Y0076928D01*
X0031231Y0076928D01*
X0033321Y0077794D01*
X0034920Y0079393D01*
X0035100Y0079827D01*
X0035280Y0079393D01*
X0036879Y0077794D01*
X0037562Y0077511D01*
X0034833Y0074782D01*
X0034833Y0072600D01*
X0040100Y0072600D01*
X0045367Y0072600D01*
X0045367Y0074782D01*
X0042638Y0077511D01*
X0043321Y0077794D01*
X0044920Y0079393D01*
X0045100Y0079827D01*
X0045280Y0079393D01*
X0046879Y0077794D01*
X0048969Y0076928D01*
X0051231Y0076928D01*
X0053321Y0077794D01*
X0054920Y0079393D01*
X0055328Y0080378D01*
X0055595Y0079854D01*
X0056083Y0079183D01*
X0056669Y0078597D01*
X0057340Y0078109D01*
X0058078Y0077733D01*
X0058867Y0077477D01*
X0059685Y0077347D01*
X0060100Y0077347D01*
X0060515Y0077347D01*
X0061333Y0077477D01*
X0062122Y0077733D01*
X0062860Y0078109D01*
X0063531Y0078597D01*
X0064117Y0079183D01*
X0064605Y0079854D01*
X0064981Y0080592D01*
X0065237Y0081381D01*
X0065367Y0082200D01*
X0065367Y0085100D01*
X0065367Y0088000D01*
X0065237Y0088819D01*
X0064981Y0089608D01*
X0064605Y0090346D01*
X0064117Y0091017D01*
X0063531Y0091603D01*
X0062860Y0092091D01*
X0062122Y0092467D01*
X0061333Y0092723D01*
X0060515Y0092853D01*
X0060100Y0092853D01*
X0059685Y0092853D01*
X0058867Y0092723D01*
X0058078Y0092467D01*
X0057340Y0092091D01*
X0056669Y0091603D01*
X0056083Y0091017D01*
X0055595Y0090346D01*
X0055328Y0089822D01*
X0054920Y0090807D01*
X0053321Y0092406D01*
X0051231Y0093272D01*
X0048969Y0093272D01*
X0046879Y0092406D01*
X0045280Y0090807D01*
X0045100Y0090373D01*
X0044920Y0090807D01*
X0044900Y0090827D01*
X0044900Y0091055D01*
X0044169Y0092819D01*
X0042819Y0094169D01*
X0030060Y0106928D01*
X0031231Y0106928D01*
X0033321Y0107794D01*
X0034920Y0109393D01*
X0035100Y0109827D01*
X0035280Y0109393D01*
X0035300Y0109373D01*
X0035300Y0109145D01*
X0036031Y0107381D01*
X0041031Y0102381D01*
X0042381Y0101031D01*
X0044145Y0100300D01*
X0068555Y0100300D01*
X0069400Y0100650D01*
X0069400Y0046347D01*
X0068400Y0043933D01*
X0068400Y0041267D01*
X0069420Y0038805D01*
X0071305Y0036920D01*
X0073767Y0035900D01*
X0076433Y0035900D01*
X0078895Y0036920D01*
X0080780Y0038805D01*
X0081169Y0039743D01*
X0092612Y0028300D01*
X0023469Y0028300D01*
X0020455Y0027052D01*
X0018148Y0024745D01*
X0016900Y0021731D01*
X0016900Y0018469D01*
X0018148Y0015455D01*
X0020455Y0013148D01*
X0023469Y0011900D01*
X0106731Y0011900D01*
X0109745Y0013148D01*
X0112052Y0015455D01*
X0113300Y0018469D01*
X0113300Y0021731D01*
X0112052Y0024745D01*
X0111497Y0025300D01*
X0120630Y0025300D01*
X0120578Y0025260D01*
X0119955Y0024637D01*
X0119419Y0023939D01*
X0118979Y0023176D01*
X0118642Y0022363D01*
X0118414Y0021512D01*
X0118299Y0020639D01*
X0118299Y0020198D01*
X0118299Y0019758D01*
X0118414Y0018885D01*
X0118642Y0018034D01*
X0118979Y0017221D01*
X0119419Y0016458D01*
X0119955Y0015759D01*
X0120578Y0015137D01*
X0121277Y0014601D01*
X0122039Y0014160D01*
X0122853Y0013823D01*
X0123703Y0013595D01*
X0124577Y0013480D01*
X0125017Y0013480D01*
X0125457Y0013480D01*
X0126330Y0013595D01*
X0127181Y0013823D01*
X0127995Y0014160D01*
X0128757Y0014601D01*
X0129456Y0015137D01*
X0130079Y0015759D01*
X0130615Y0016458D01*
X0131055Y0017221D01*
X0131392Y0018034D01*
X0131620Y0018885D01*
X0131735Y0019758D01*
X0131735Y0020198D01*
X0125017Y0020198D01*
X0125017Y0013480D01*
X0125017Y0020198D01*
X0125017Y0020198D01*
X0125017Y0020198D01*
X0118299Y0020198D01*
X0125017Y0020198D01*
X0125017Y0020198D01*
X0131735Y0020198D01*
X0131735Y0020639D01*
X0131620Y0021512D01*
X0131392Y0022363D01*
X0131055Y0023176D01*
X0130615Y0023939D01*
X0130079Y0024637D01*
X0129456Y0025260D01*
X0129404Y0025300D01*
X0132800Y0025300D01*
X0132800Y0014145D01*
X0133531Y0012381D01*
X0134881Y0011031D01*
X0139881Y0006031D01*
X0140438Y0005800D01*
X0005800Y0005800D01*
X0005800Y0235620D01*
X0156880Y0235620D01*
X0156880Y0178558D01*
X0154985Y0179343D01*
X0145215Y0179343D01*
X0142737Y0178317D01*
X0140840Y0176420D01*
X0140800Y0176323D01*
X0140800Y0198853D01*
X0141800Y0201267D01*
X0141800Y0203933D01*
X0140780Y0206395D01*
X0138895Y0208280D01*
X0136433Y0209300D01*
X0133767Y0209300D01*
X0131305Y0208280D01*
X0129420Y0206395D01*
X0128400Y0203933D01*
X0128400Y0201267D01*
X0129400Y0198853D01*
X0129400Y0081341D01*
X0127455Y0083286D01*
X0122745Y0083286D01*
X0119804Y0080345D01*
X0117282Y0082867D01*
X0115100Y0082867D01*
X0115100Y0077600D01*
X0115100Y0077600D01*
X0115100Y0072333D01*
X0117282Y0072333D01*
X0119804Y0074855D01*
X0122745Y0071914D01*
X0127455Y0071914D01*
X0129400Y0073859D01*
X0129400Y0062400D01*
X0092400Y0062400D01*
X0092400Y0121055D01*
X0091669Y0122819D01*
X0080800Y0133688D01*
X0080800Y0198853D01*
X0081800Y0201267D01*
X0081800Y0203933D01*
X0080830Y0206276D01*
X0084141Y0206276D01*
X0085124Y0206431D01*
X0086071Y0206739D01*
X0086958Y0207191D01*
X0087763Y0207776D01*
X0088467Y0208480D01*
X0089052Y0209285D01*
X0089504Y0210172D01*
X0089812Y0211119D01*
X0089833Y0211252D01*
X0089833Y0210418D01*
X0092918Y0207333D01*
X0095100Y0207333D01*
X0097282Y0207333D01*
X0100367Y0210418D01*
X0100367Y0212600D01*
X0100367Y0214782D01*
X0097845Y0217304D01*
X0100786Y0220245D01*
X0100786Y0224955D01*
X0097455Y0228286D01*
X0092745Y0228286D01*
X0089805Y0225346D01*
X0089360Y0226420D01*
X0087463Y0228317D01*
X0084985Y0229343D01*
X0075215Y0229343D01*
X0072737Y0228317D01*
X0071350Y0226930D01*
X0069963Y0228317D01*
X0067485Y0229343D01*
X0057715Y0229343D01*
X0055237Y0228317D01*
X0053340Y0226420D01*
X0052313Y0223941D01*
X0052313Y0221259D01*
X0053340Y0218780D01*
X0054816Y0217304D01*
X0054233Y0216720D01*
X0053648Y0215915D01*
X0053196Y0215028D01*
X0052888Y0214081D01*
X0052732Y0213098D01*
X0052732Y0212600D01*
X0052732Y0212102D01*
X0052888Y0211119D01*
X0053196Y0210172D01*
X0053648Y0209285D01*
X0054233Y0208480D01*
X0054937Y0207776D01*
X0055742Y0207191D01*
X0056629Y0206739D01*
X0057576Y0206431D01*
X0058559Y0206276D01*
X0062600Y0206276D01*
X0066641Y0206276D01*
X0067624Y0206431D01*
X0068571Y0206739D01*
X0069458Y0207191D01*
X0070263Y0207776D01*
X0070967Y0208480D01*
X0071350Y0209007D01*
X0071733Y0208480D01*
X0071749Y0208464D01*
X0071305Y0208280D01*
X0069420Y0206395D01*
X0068400Y0203933D01*
X0068400Y0201267D01*
X0069400Y0198853D01*
X0069400Y0193688D01*
X0065367Y0189655D01*
X0065367Y0190100D01*
X0065367Y0192282D01*
X0062845Y0194804D01*
X0065786Y0197745D01*
X0065786Y0202455D01*
X0062455Y0205786D01*
X0057745Y0205786D01*
X0054900Y0202941D01*
X0054900Y0206055D01*
X0054169Y0207819D01*
X0052819Y0209169D01*
X0051055Y0209900D01*
X0021645Y0209900D01*
X0019881Y0209169D01*
X0018531Y0207819D01*
X0018077Y0206724D01*
X0017528Y0207004D01*
X0016581Y0207312D01*
X0015598Y0207468D01*
X0015100Y0207468D01*
X0015100Y0197600D01*
X0015100Y0197600D01*
X0015100Y0197600D01*
X0008776Y0197600D01*
X0015100Y0197600D01*
X0015100Y0204106D02*
X0015100Y0204106D01*
X0015100Y0207305D02*
X0015100Y0207305D01*
X0013597Y0207305D02*
X0005800Y0207305D01*
X0005800Y0210503D02*
X0053088Y0210503D01*
X0052732Y0212600D02*
X0062600Y0212600D01*
X0080100Y0212600D01*
X0095100Y0212600D01*
X0100367Y0212600D01*
X0095100Y0212600D01*
X0095100Y0212600D01*
X0095100Y0212600D01*
X0095100Y0207333D01*
X0095100Y0212600D01*
X0095100Y0212600D01*
X0089833Y0212600D01*
X0080100Y0212600D01*
X0080100Y0212600D01*
X0080100Y0212600D01*
X0070232Y0212600D01*
X0062600Y0212600D01*
X0062600Y0212600D01*
X0062600Y0206276D01*
X0062600Y0212600D01*
X0062600Y0212600D01*
X0062600Y0212600D01*
X0052732Y0212600D01*
X0052828Y0213702D02*
X0005800Y0213702D01*
X0005800Y0216900D02*
X0019123Y0216900D01*
X0018777Y0217101D02*
X0019539Y0216660D01*
X0020353Y0216323D01*
X0021203Y0216095D01*
X0022077Y0215980D01*
X0022517Y0215980D01*
X0022957Y0215980D01*
X0023830Y0216095D01*
X0024681Y0216323D01*
X0025495Y0216660D01*
X0026257Y0217101D01*
X0026956Y0217637D01*
X0027579Y0218259D01*
X0028115Y0218958D01*
X0028555Y0219721D01*
X0028892Y0220534D01*
X0029120Y0221385D01*
X0029235Y0222258D01*
X0029235Y0222698D01*
X0022517Y0222698D01*
X0022517Y0215980D01*
X0022517Y0222698D01*
X0022517Y0222698D01*
X0022517Y0222698D01*
X0015799Y0222698D01*
X0015799Y0222258D01*
X0015914Y0221385D01*
X0016142Y0220534D01*
X0016479Y0219721D01*
X0016919Y0218958D01*
X0017455Y0218259D01*
X0018078Y0217637D01*
X0018777Y0217101D01*
X0016322Y0220099D02*
X0005800Y0220099D01*
X0005800Y0223297D02*
X0015820Y0223297D01*
X0015799Y0223139D02*
X0015799Y0222698D01*
X0022517Y0222698D01*
X0022517Y0222698D01*
X0029235Y0222698D01*
X0029235Y0223139D01*
X0029120Y0224012D01*
X0028892Y0224863D01*
X0028555Y0225676D01*
X0028115Y0226439D01*
X0027579Y0227137D01*
X0026956Y0227760D01*
X0026257Y0228296D01*
X0025495Y0228737D01*
X0024681Y0229074D01*
X0023830Y0229302D01*
X0022957Y0229417D01*
X0022517Y0229417D01*
X0022517Y0222699D01*
X0022517Y0222699D01*
X0022517Y0229417D01*
X0022077Y0229417D01*
X0021203Y0229302D01*
X0020353Y0229074D01*
X0019539Y0228737D01*
X0018777Y0228296D01*
X0018078Y0227760D01*
X0017455Y0227137D01*
X0016919Y0226439D01*
X0016479Y0225676D01*
X0016142Y0224863D01*
X0015914Y0224012D01*
X0015799Y0223139D01*
X0016963Y0226496D02*
X0005800Y0226496D01*
X0005800Y0229694D02*
X0040757Y0229694D01*
X0041097Y0229835D02*
X0038474Y0228749D01*
X0036466Y0226741D01*
X0035380Y0224118D01*
X0035380Y0221279D01*
X0036466Y0218656D01*
X0038474Y0216648D01*
X0041097Y0215561D01*
X0043937Y0215561D01*
X0046560Y0216648D01*
X0048567Y0218656D01*
X0049654Y0221279D01*
X0049654Y0224118D01*
X0048567Y0226741D01*
X0046560Y0228749D01*
X0043937Y0229835D01*
X0041097Y0229835D01*
X0044277Y0229694D02*
X0156880Y0229694D01*
X0156880Y0226496D02*
X0152092Y0226496D01*
X0153531Y0225057D02*
X0150057Y0228531D01*
X0147600Y0228531D01*
X0147600Y0222600D01*
X0153531Y0222600D01*
X0153531Y0225057D01*
X0153531Y0223297D02*
X0156880Y0223297D01*
X0156880Y0220099D02*
X0153487Y0220099D01*
X0153531Y0220143D02*
X0153531Y0222600D01*
X0147600Y0222600D01*
X0147600Y0222600D01*
X0147600Y0222600D01*
X0147600Y0216669D01*
X0150057Y0216669D01*
X0153531Y0220143D01*
X0150288Y0216900D02*
X0156880Y0216900D01*
X0156880Y0213702D02*
X0100367Y0213702D01*
X0098248Y0216900D02*
X0107267Y0216900D01*
X0106503Y0217217D02*
X0108837Y0216250D01*
X0111363Y0216250D01*
X0113697Y0217217D01*
X0115396Y0218916D01*
X0117643Y0216669D01*
X0120100Y0216669D01*
X0122557Y0216669D01*
X0126031Y0220143D01*
X0126031Y0222600D01*
X0126031Y0225057D01*
X0122557Y0228531D01*
X0120100Y0228531D01*
X0120100Y0222600D01*
X0126031Y0222600D01*
X0120100Y0222600D01*
X0120100Y0222600D01*
X0120100Y0222600D01*
X0120100Y0216669D01*
X0120100Y0222600D01*
X0120100Y0222600D01*
X0120100Y0228531D01*
X0117643Y0228531D01*
X0115396Y0226284D01*
X0113697Y0227983D01*
X0111363Y0228950D01*
X0108837Y0228950D01*
X0106503Y0227983D01*
X0104717Y0226197D01*
X0103750Y0223863D01*
X0103750Y0221337D01*
X0104717Y0219003D01*
X0106503Y0217217D01*
X0104263Y0220099D02*
X0100640Y0220099D01*
X0100786Y0223297D02*
X0103750Y0223297D01*
X0105016Y0226496D02*
X0099245Y0226496D01*
X0090955Y0226496D02*
X0089284Y0226496D01*
X0089612Y0210503D02*
X0089833Y0210503D01*
X0087115Y0207305D02*
X0130330Y0207305D01*
X0128472Y0204106D02*
X0081728Y0204106D01*
X0081651Y0200908D02*
X0082867Y0200908D01*
X0081914Y0199955D02*
X0085245Y0203286D01*
X0089955Y0203286D01*
X0092896Y0200345D01*
X0095418Y0202867D01*
X0097600Y0202867D01*
X0099782Y0202867D01*
X0102867Y0199782D01*
X0102867Y0197600D01*
X0097600Y0197600D01*
X0097600Y0197600D01*
X0097600Y0197600D01*
X0097600Y0202867D01*
X0097600Y0197600D01*
X0102867Y0197600D01*
X0102867Y0195418D01*
X0099782Y0192333D01*
X0097600Y0192333D01*
X0097600Y0197600D01*
X0097600Y0197600D01*
X0097600Y0192333D01*
X0095418Y0192333D01*
X0092896Y0194855D01*
X0089955Y0191914D01*
X0085245Y0191914D01*
X0081914Y0195245D01*
X0081914Y0199955D01*
X0081914Y0197709D02*
X0080800Y0197709D01*
X0080800Y0194511D02*
X0082648Y0194511D01*
X0080800Y0191312D02*
X0129400Y0191312D01*
X0129400Y0188114D02*
X0118854Y0188114D01*
X0118612Y0188356D02*
X0116333Y0189300D01*
X0113867Y0189300D01*
X0111588Y0188356D01*
X0109844Y0186612D01*
X0109790Y0186481D01*
X0109510Y0186866D01*
X0108866Y0187510D01*
X0108130Y0188044D01*
X0107319Y0188458D01*
X0106454Y0188739D01*
X0105555Y0188881D01*
X0105100Y0188881D01*
X0105100Y0180100D01*
X0105100Y0180100D01*
X0105100Y0188881D01*
X0104645Y0188881D01*
X0103746Y0188739D01*
X0102881Y0188458D01*
X0102070Y0188044D01*
X0101334Y0187510D01*
X0100690Y0186866D01*
X0100410Y0186481D01*
X0100356Y0186612D01*
X0098612Y0188356D01*
X0096333Y0189300D01*
X0093867Y0189300D01*
X0091588Y0188356D01*
X0089844Y0186612D01*
X0088900Y0184333D01*
X0088900Y0175867D01*
X0089844Y0173588D01*
X0091588Y0171844D01*
X0093867Y0170900D01*
X0096333Y0170900D01*
X0098612Y0171844D01*
X0100356Y0173588D01*
X0100410Y0173719D01*
X0100690Y0173334D01*
X0101334Y0172690D01*
X0102070Y0172156D01*
X0102881Y0171742D01*
X0103746Y0171461D01*
X0104645Y0171319D01*
X0105100Y0171319D01*
X0105555Y0171319D01*
X0106454Y0171461D01*
X0107319Y0171742D01*
X0108130Y0172156D01*
X0108866Y0172690D01*
X0109510Y0173334D01*
X0109790Y0173719D01*
X0109844Y0173588D01*
X0111588Y0171844D01*
X0113867Y0170900D01*
X0116333Y0170900D01*
X0118612Y0171844D01*
X0120356Y0173588D01*
X0121300Y0175867D01*
X0121300Y0184333D01*
X0120356Y0186612D01*
X0118612Y0188356D01*
X0121059Y0184915D02*
X0129400Y0184915D01*
X0129400Y0181717D02*
X0121300Y0181717D01*
X0121300Y0178518D02*
X0129400Y0178518D01*
X0129400Y0175320D02*
X0121073Y0175320D01*
X0118889Y0172121D02*
X0129400Y0172121D01*
X0129400Y0168923D02*
X0080800Y0168923D01*
X0080800Y0172121D02*
X0091311Y0172121D01*
X0089127Y0175320D02*
X0080800Y0175320D01*
X0080800Y0178518D02*
X0088900Y0178518D01*
X0088900Y0181717D02*
X0080800Y0181717D01*
X0080800Y0184915D02*
X0089141Y0184915D01*
X0091346Y0188114D02*
X0080800Y0188114D01*
X0075100Y0192600D02*
X0065100Y0182600D01*
X0045100Y0182600D01*
X0035100Y0192600D01*
X0035100Y0197600D01*
X0025100Y0197600D02*
X0025100Y0192600D01*
X0040100Y0177600D01*
X0070100Y0177600D01*
X0075100Y0182600D01*
X0067024Y0191312D02*
X0065367Y0191312D01*
X0065367Y0190100D02*
X0060100Y0190100D01*
X0060100Y0190100D01*
X0065367Y0190100D01*
X0063138Y0194511D02*
X0069400Y0194511D01*
X0069400Y0197709D02*
X0065750Y0197709D01*
X0065786Y0200908D02*
X0068549Y0200908D01*
X0068472Y0204106D02*
X0064135Y0204106D01*
X0062600Y0207305D02*
X0062600Y0207305D01*
X0062600Y0210503D02*
X0062600Y0210503D01*
X0069615Y0207305D02*
X0070330Y0207305D01*
X0056065Y0204106D02*
X0054900Y0204106D01*
X0054382Y0207305D02*
X0055585Y0207305D01*
X0054413Y0216900D02*
X0046812Y0216900D01*
X0049165Y0220099D02*
X0052794Y0220099D01*
X0052313Y0223297D02*
X0049654Y0223297D01*
X0048669Y0226496D02*
X0053416Y0226496D01*
X0038222Y0216900D02*
X0025910Y0216900D01*
X0022517Y0216900D02*
X0022517Y0216900D01*
X0022517Y0220099D02*
X0022517Y0220099D01*
X0022517Y0223297D02*
X0022517Y0223297D01*
X0022517Y0226496D02*
X0022517Y0226496D01*
X0028071Y0226496D02*
X0036365Y0226496D01*
X0035380Y0223297D02*
X0029214Y0223297D01*
X0028712Y0220099D02*
X0035869Y0220099D01*
X0018318Y0207305D02*
X0016603Y0207305D01*
X0009512Y0204106D02*
X0005800Y0204106D01*
X0005800Y0200908D02*
X0008776Y0200908D01*
X0008776Y0197709D02*
X0005800Y0197709D01*
X0005800Y0194511D02*
X0008776Y0194511D01*
X0009400Y0191312D02*
X0005800Y0191312D01*
X0005800Y0188114D02*
X0010073Y0188114D01*
X0009414Y0184915D02*
X0005800Y0184915D01*
X0005800Y0181717D02*
X0010442Y0181717D01*
X0010477Y0178518D02*
X0005800Y0178518D01*
X0005800Y0175320D02*
X0009414Y0175320D01*
X0010038Y0172121D02*
X0005800Y0172121D01*
X0005800Y0168923D02*
X0010896Y0168923D01*
X0009428Y0165724D02*
X0005800Y0165724D01*
X0005800Y0162526D02*
X0010026Y0162526D01*
X0010418Y0157867D02*
X0007333Y0154782D01*
X0007333Y0152600D01*
X0012600Y0152600D01*
X0012600Y0152600D01*
X0012600Y0152600D01*
X0012600Y0157867D01*
X0010418Y0157867D01*
X0008680Y0156129D02*
X0005800Y0156129D01*
X0005800Y0159327D02*
X0043786Y0159327D01*
X0041914Y0156129D02*
X0027112Y0156129D01*
X0028286Y0152930D02*
X0041914Y0152930D01*
X0043509Y0149732D02*
X0044191Y0149732D01*
X0043850Y0140809D02*
X0045245Y0139414D01*
X0049955Y0139414D01*
X0051159Y0140618D01*
X0051370Y0140108D01*
X0052361Y0139117D01*
X0050418Y0139117D01*
X0048225Y0136924D01*
X0047282Y0137867D01*
X0045100Y0137867D01*
X0045100Y0132600D01*
X0045100Y0132600D01*
X0045100Y0137867D01*
X0042918Y0137867D01*
X0040396Y0135345D01*
X0037455Y0138286D01*
X0032745Y0138286D01*
X0029414Y0134955D01*
X0029414Y0130245D01*
X0030536Y0129123D01*
X0030300Y0128555D01*
X0030300Y0126645D01*
X0031031Y0124881D01*
X0032381Y0123531D01*
X0034145Y0122800D01*
X0037830Y0122800D01*
X0036879Y0122406D01*
X0035280Y0120807D01*
X0035100Y0120373D01*
X0034920Y0120807D01*
X0033321Y0122406D01*
X0031231Y0123272D01*
X0028969Y0123272D01*
X0026879Y0122406D01*
X0025280Y0120807D01*
X0024414Y0118717D01*
X0024414Y0112574D01*
X0020786Y0116202D01*
X0020786Y0121217D01*
X0019920Y0123307D01*
X0019900Y0123327D01*
X0019900Y0124759D01*
X0020245Y0124414D01*
X0024955Y0124414D01*
X0028286Y0127745D01*
X0028286Y0132455D01*
X0025641Y0135100D01*
X0028286Y0137745D01*
X0028286Y0139414D01*
X0032455Y0139414D01*
X0035100Y0142059D01*
X0037745Y0139414D01*
X0042455Y0139414D01*
X0043850Y0140809D01*
X0043177Y0140136D02*
X0044523Y0140136D01*
X0045100Y0136937D02*
X0045100Y0136937D01*
X0045100Y0133739D02*
X0045100Y0133739D01*
X0041989Y0136937D02*
X0038803Y0136937D01*
X0037023Y0140136D02*
X0033177Y0140136D01*
X0031397Y0136937D02*
X0027478Y0136937D01*
X0027002Y0133739D02*
X0029414Y0133739D01*
X0029414Y0130540D02*
X0028286Y0130540D01*
X0027883Y0127342D02*
X0030300Y0127342D01*
X0031768Y0124143D02*
X0019900Y0124143D01*
X0020786Y0120945D02*
X0025418Y0120945D01*
X0024414Y0117746D02*
X0020786Y0117746D01*
X0022440Y0114548D02*
X0024414Y0114548D01*
X0018459Y0104952D02*
X0005800Y0104952D01*
X0005800Y0108151D02*
X0015261Y0108151D01*
X0010824Y0111349D02*
X0005800Y0111349D01*
X0005800Y0114548D02*
X0009414Y0114548D01*
X0009414Y0117746D02*
X0005800Y0117746D01*
X0005800Y0120945D02*
X0009414Y0120945D01*
X0010300Y0124143D02*
X0005800Y0124143D01*
X0005800Y0127342D02*
X0009817Y0127342D01*
X0009414Y0130540D02*
X0005800Y0130540D01*
X0005800Y0133739D02*
X0010698Y0133739D01*
X0010222Y0136937D02*
X0005800Y0136937D01*
X0005800Y0140136D02*
X0009414Y0140136D01*
X0010294Y0143334D02*
X0005800Y0143334D01*
X0005800Y0146533D02*
X0024414Y0146533D01*
X0017428Y0149732D02*
X0017180Y0149732D01*
X0012600Y0149732D02*
X0012600Y0149732D01*
X0012600Y0147333D02*
X0012600Y0152600D01*
X0007333Y0152600D01*
X0007333Y0150418D01*
X0010418Y0147333D01*
X0012600Y0147333D01*
X0008020Y0149732D02*
X0005800Y0149732D01*
X0005800Y0152930D02*
X0007333Y0152930D01*
X0012600Y0152930D02*
X0012600Y0152930D01*
X0012600Y0156129D02*
X0012600Y0156129D01*
X0016520Y0156129D02*
X0018088Y0156129D01*
X0025174Y0162526D02*
X0040026Y0162526D01*
X0039428Y0165724D02*
X0025772Y0165724D01*
X0033509Y0149732D02*
X0036691Y0149732D01*
X0048211Y0136937D02*
X0048239Y0136937D01*
X0050677Y0140136D02*
X0051358Y0140136D01*
X0055100Y0145100D02*
X0055100Y0160100D01*
X0050100Y0165100D01*
X0047600Y0165100D01*
X0054956Y0168200D02*
X0055772Y0166231D01*
X0055772Y0166217D01*
X0057819Y0164169D01*
X0059169Y0162819D01*
X0059900Y0161055D01*
X0059900Y0148341D01*
X0060396Y0147845D01*
X0062918Y0150367D01*
X0065100Y0150367D01*
X0065100Y0145100D01*
X0065100Y0145100D01*
X0065100Y0150367D01*
X0065700Y0150367D01*
X0065700Y0168200D01*
X0054956Y0168200D01*
X0056264Y0165724D02*
X0065700Y0165724D01*
X0065700Y0162526D02*
X0059291Y0162526D01*
X0059900Y0159327D02*
X0065700Y0159327D01*
X0065700Y0156129D02*
X0059900Y0156129D01*
X0059900Y0152930D02*
X0065700Y0152930D01*
X0065100Y0149732D02*
X0065100Y0149732D01*
X0062283Y0149732D02*
X0059900Y0149732D01*
X0065100Y0146533D02*
X0065100Y0146533D01*
X0075100Y0132600D02*
X0087600Y0120100D01*
X0087600Y0060100D01*
X0090100Y0057600D01*
X0140100Y0057600D01*
X0147600Y0050100D01*
X0150100Y0050100D01*
X0150100Y0040100D02*
X0145100Y0040100D01*
X0140100Y0035100D01*
X0100100Y0035100D01*
X0082600Y0052600D01*
X0082600Y0115100D01*
X0075100Y0122600D01*
X0075100Y0112600D02*
X0067600Y0105100D01*
X0045100Y0105100D01*
X0040100Y0110100D01*
X0040100Y0115100D01*
X0035418Y0120945D02*
X0034782Y0120945D01*
X0035712Y0108151D02*
X0033678Y0108151D01*
X0032036Y0104952D02*
X0038459Y0104952D01*
X0041658Y0101754D02*
X0035234Y0101754D01*
X0038433Y0098555D02*
X0069400Y0098555D01*
X0069400Y0095357D02*
X0041631Y0095357D01*
X0042819Y0094169D02*
X0042819Y0094169D01*
X0044443Y0092158D02*
X0046632Y0092158D01*
X0040100Y0090100D02*
X0040100Y0085100D01*
X0040100Y0090100D02*
X0015100Y0115100D01*
X0015100Y0117600D01*
X0015100Y0130100D01*
X0021658Y0101754D02*
X0005800Y0101754D01*
X0005800Y0098555D02*
X0024856Y0098555D01*
X0028055Y0095357D02*
X0017232Y0095357D01*
X0016231Y0095772D02*
X0013969Y0095772D01*
X0011879Y0094906D01*
X0010280Y0093307D01*
X0009414Y0091217D01*
X0009414Y0083983D01*
X0010280Y0081893D01*
X0011879Y0080294D01*
X0013969Y0079428D01*
X0016231Y0079428D01*
X0018321Y0080294D01*
X0019920Y0081893D01*
X0020786Y0083983D01*
X0020786Y0091217D01*
X0019920Y0093307D01*
X0018321Y0094906D01*
X0016231Y0095772D01*
X0012968Y0095357D02*
X0005800Y0095357D01*
X0005800Y0092158D02*
X0009804Y0092158D01*
X0009414Y0088960D02*
X0005800Y0088960D01*
X0005800Y0085761D02*
X0009414Y0085761D01*
X0010003Y0082563D02*
X0005800Y0082563D01*
X0005800Y0079364D02*
X0025309Y0079364D01*
X0024414Y0082563D02*
X0020197Y0082563D01*
X0020786Y0085761D02*
X0024414Y0085761D01*
X0024515Y0088960D02*
X0020786Y0088960D01*
X0020396Y0092158D02*
X0026632Y0092158D01*
X0034891Y0079364D02*
X0035309Y0079364D01*
X0036217Y0076166D02*
X0029575Y0076166D01*
X0030786Y0072967D02*
X0034833Y0072967D01*
X0034833Y0072600D02*
X0034833Y0070418D01*
X0037355Y0067896D01*
X0034414Y0064955D01*
X0034414Y0060245D01*
X0037059Y0057600D01*
X0034414Y0054955D01*
X0034414Y0050245D01*
X0037355Y0047304D01*
X0034833Y0044782D01*
X0034833Y0042600D01*
X0040100Y0042600D01*
X0045367Y0042600D01*
X0045367Y0044782D01*
X0042845Y0047304D01*
X0045786Y0050245D01*
X0045786Y0054955D01*
X0043141Y0057600D01*
X0045786Y0060245D01*
X0045786Y0064955D01*
X0042845Y0067896D01*
X0045367Y0070418D01*
X0045367Y0072600D01*
X0040100Y0072600D01*
X0040100Y0072600D01*
X0040100Y0072600D01*
X0034833Y0072600D01*
X0035483Y0069769D02*
X0030310Y0069769D01*
X0034414Y0063372D02*
X0005800Y0063372D01*
X0005800Y0066570D02*
X0036029Y0066570D01*
X0034486Y0060173D02*
X0027475Y0060173D01*
X0027867Y0059782D02*
X0024782Y0062867D01*
X0022600Y0062867D01*
X0022600Y0057600D01*
X0027867Y0057600D01*
X0027867Y0059782D01*
X0027867Y0057600D02*
X0022600Y0057600D01*
X0022600Y0057600D01*
X0022600Y0057600D01*
X0022600Y0057600D01*
X0017333Y0057600D01*
X0017333Y0059782D01*
X0020418Y0062867D01*
X0022600Y0062867D01*
X0022600Y0057600D01*
X0017333Y0057600D01*
X0017333Y0055418D01*
X0019855Y0052896D01*
X0016914Y0049955D01*
X0016914Y0045245D01*
X0020245Y0041914D01*
X0024955Y0041914D01*
X0028286Y0045245D01*
X0028286Y0049955D01*
X0025345Y0052896D01*
X0027867Y0055418D01*
X0027867Y0057600D01*
X0027867Y0056975D02*
X0036434Y0056975D01*
X0034414Y0053776D02*
X0026225Y0053776D01*
X0027663Y0050578D02*
X0034414Y0050578D01*
X0037280Y0047379D02*
X0028286Y0047379D01*
X0027222Y0044181D02*
X0034833Y0044181D01*
X0034833Y0042600D02*
X0034833Y0040418D01*
X0037918Y0037333D01*
X0040100Y0037333D01*
X0042282Y0037333D01*
X0045367Y0040418D01*
X0045367Y0042600D01*
X0040100Y0042600D01*
X0040100Y0042600D01*
X0040100Y0037333D01*
X0040100Y0042600D01*
X0040100Y0042600D01*
X0040100Y0042600D01*
X0034833Y0042600D01*
X0034833Y0040982D02*
X0005800Y0040982D01*
X0005800Y0037784D02*
X0037468Y0037784D01*
X0040100Y0037784D02*
X0040100Y0037784D01*
X0040100Y0040982D02*
X0040100Y0040982D01*
X0042732Y0037784D02*
X0070441Y0037784D01*
X0068518Y0040982D02*
X0045367Y0040982D01*
X0045367Y0044181D02*
X0068503Y0044181D01*
X0069400Y0047379D02*
X0042920Y0047379D01*
X0045786Y0050578D02*
X0069400Y0050578D01*
X0069400Y0053776D02*
X0066225Y0053776D01*
X0064782Y0052333D02*
X0067867Y0055418D01*
X0067867Y0057600D01*
X0067867Y0059782D01*
X0064782Y0062867D01*
X0062600Y0062867D01*
X0062600Y0057600D01*
X0067867Y0057600D01*
X0062600Y0057600D01*
X0062600Y0057600D01*
X0062600Y0057600D01*
X0062600Y0052333D01*
X0064782Y0052333D01*
X0062600Y0052333D02*
X0062600Y0057600D01*
X0062600Y0057600D01*
X0062600Y0062867D01*
X0060418Y0062867D01*
X0057896Y0060345D01*
X0054955Y0063286D01*
X0050245Y0063286D01*
X0046914Y0059955D01*
X0046914Y0055245D01*
X0050245Y0051914D01*
X0054955Y0051914D01*
X0057896Y0054855D01*
X0060418Y0052333D01*
X0062600Y0052333D01*
X0062600Y0053776D02*
X0062600Y0053776D01*
X0062600Y0056975D02*
X0062600Y0056975D01*
X0062600Y0060173D02*
X0062600Y0060173D01*
X0062600Y0064833D02*
X0060418Y0064833D01*
X0057896Y0067355D01*
X0054955Y0064414D01*
X0050245Y0064414D01*
X0046914Y0067745D01*
X0046914Y0072455D01*
X0050245Y0075786D01*
X0054955Y0075786D01*
X0057896Y0072845D01*
X0060418Y0075367D01*
X0062600Y0075367D01*
X0064782Y0075367D01*
X0067867Y0072282D01*
X0067867Y0070100D01*
X0062600Y0070100D01*
X0062600Y0070100D01*
X0062600Y0070100D01*
X0062600Y0075367D01*
X0062600Y0070100D01*
X0067867Y0070100D01*
X0067867Y0067918D01*
X0064782Y0064833D01*
X0062600Y0064833D01*
X0062600Y0070100D01*
X0062600Y0070100D01*
X0062600Y0064833D01*
X0062600Y0066570D02*
X0062600Y0066570D01*
X0062600Y0069769D02*
X0062600Y0069769D01*
X0062600Y0072967D02*
X0062600Y0072967D01*
X0060100Y0077347D02*
X0060100Y0085100D01*
X0060100Y0085100D01*
X0060100Y0092853D01*
X0060100Y0085100D01*
X0065367Y0085100D01*
X0060100Y0085100D01*
X0060100Y0085100D01*
X0060100Y0085100D01*
X0060100Y0077347D01*
X0060100Y0079364D02*
X0060100Y0079364D01*
X0060100Y0082563D02*
X0060100Y0082563D01*
X0060100Y0085761D02*
X0060100Y0085761D01*
X0060100Y0088960D02*
X0060100Y0088960D01*
X0060100Y0092158D02*
X0060100Y0092158D01*
X0062727Y0092158D02*
X0069400Y0092158D01*
X0069400Y0088960D02*
X0065192Y0088960D01*
X0065367Y0085761D02*
X0069400Y0085761D01*
X0069400Y0082563D02*
X0065367Y0082563D01*
X0064249Y0079364D02*
X0069400Y0079364D01*
X0069400Y0076166D02*
X0043983Y0076166D01*
X0044891Y0079364D02*
X0045309Y0079364D01*
X0045367Y0072967D02*
X0047426Y0072967D01*
X0046914Y0069769D02*
X0044717Y0069769D01*
X0044171Y0066570D02*
X0048089Y0066570D01*
X0045786Y0063372D02*
X0069400Y0063372D01*
X0069400Y0066570D02*
X0066519Y0066570D01*
X0067867Y0069769D02*
X0069400Y0069769D01*
X0069400Y0072967D02*
X0067181Y0072967D01*
X0058681Y0066570D02*
X0057111Y0066570D01*
X0057774Y0072967D02*
X0058019Y0072967D01*
X0055951Y0079364D02*
X0054891Y0079364D01*
X0053568Y0092158D02*
X0057473Y0092158D01*
X0067475Y0060173D02*
X0069400Y0060173D01*
X0069400Y0056975D02*
X0067867Y0056975D01*
X0075100Y0052600D02*
X0097600Y0030100D01*
X0135100Y0030100D01*
X0137600Y0027600D01*
X0137600Y0015100D01*
X0142600Y0010100D01*
X0150100Y0010100D01*
X0136915Y0008997D02*
X0005800Y0008997D01*
X0005800Y0012196D02*
X0022755Y0012196D01*
X0018209Y0015394D02*
X0005800Y0015394D01*
X0005800Y0018593D02*
X0016900Y0018593D01*
X0016925Y0021791D02*
X0005800Y0021791D01*
X0005800Y0024990D02*
X0018393Y0024990D01*
X0023199Y0028188D02*
X0005800Y0028188D01*
X0005800Y0031387D02*
X0089525Y0031387D01*
X0086327Y0034585D02*
X0005800Y0034585D01*
X0005800Y0044181D02*
X0017978Y0044181D01*
X0016914Y0047379D02*
X0005800Y0047379D01*
X0005800Y0050578D02*
X0017537Y0050578D01*
X0018975Y0053776D02*
X0005800Y0053776D01*
X0005800Y0056975D02*
X0017333Y0056975D01*
X0017725Y0060173D02*
X0005800Y0060173D01*
X0005800Y0069769D02*
X0009890Y0069769D01*
X0009414Y0072967D02*
X0005800Y0072967D01*
X0005800Y0076166D02*
X0010625Y0076166D01*
X0019575Y0076166D02*
X0020625Y0076166D01*
X0022600Y0060173D02*
X0022600Y0060173D01*
X0043766Y0056975D02*
X0046914Y0056975D01*
X0047132Y0060173D02*
X0045714Y0060173D01*
X0045786Y0053776D02*
X0048383Y0053776D01*
X0056817Y0053776D02*
X0058975Y0053776D01*
X0079759Y0037784D02*
X0083128Y0037784D01*
X0092400Y0063372D02*
X0129400Y0063372D01*
X0129400Y0066570D02*
X0092400Y0066570D01*
X0092400Y0069769D02*
X0129400Y0069769D01*
X0129400Y0072967D02*
X0128508Y0072967D01*
X0125100Y0067600D02*
X0140100Y0067600D01*
X0140800Y0066570D02*
X0144556Y0066570D01*
X0145215Y0066843D02*
X0142737Y0065817D01*
X0140840Y0063920D01*
X0140800Y0063823D01*
X0140800Y0098877D01*
X0140840Y0098780D01*
X0142737Y0096883D01*
X0143947Y0096382D01*
X0143597Y0096031D01*
X0143109Y0095360D01*
X0142733Y0094622D01*
X0142477Y0093833D01*
X0142347Y0093015D01*
X0142347Y0092600D01*
X0142347Y0092185D01*
X0142477Y0091367D01*
X0142733Y0090578D01*
X0143109Y0089840D01*
X0143597Y0089169D01*
X0144183Y0088583D01*
X0144854Y0088095D01*
X0145378Y0087828D01*
X0144393Y0087420D01*
X0142794Y0085821D01*
X0141928Y0083731D01*
X0141928Y0081469D01*
X0142794Y0079379D01*
X0144393Y0077780D01*
X0144827Y0077600D01*
X0144393Y0077420D01*
X0142794Y0075821D01*
X0141928Y0073731D01*
X0141928Y0071469D01*
X0142794Y0069379D01*
X0144393Y0067780D01*
X0146483Y0066914D01*
X0153717Y0066914D01*
X0155807Y0067780D01*
X0156880Y0068854D01*
X0156880Y0066058D01*
X0154985Y0066843D01*
X0145215Y0066843D01*
X0142633Y0069769D02*
X0140800Y0069769D01*
X0140800Y0072967D02*
X0141928Y0072967D01*
X0140800Y0076166D02*
X0143139Y0076166D01*
X0142809Y0079364D02*
X0140800Y0079364D01*
X0140800Y0082563D02*
X0141928Y0082563D01*
X0142769Y0085761D02*
X0140800Y0085761D01*
X0140100Y0087600D02*
X0125100Y0087600D01*
X0122022Y0082563D02*
X0117586Y0082563D01*
X0115100Y0082563D02*
X0115100Y0082563D01*
X0115100Y0082867D02*
X0112918Y0082867D01*
X0109833Y0079782D01*
X0109833Y0077600D01*
X0115100Y0077600D01*
X0115100Y0077600D01*
X0115100Y0077600D01*
X0115100Y0082867D01*
X0112614Y0082563D02*
X0092400Y0082563D01*
X0092400Y0085761D02*
X0129400Y0085761D01*
X0129400Y0082563D02*
X0128178Y0082563D01*
X0129400Y0088960D02*
X0092400Y0088960D01*
X0092400Y0092158D02*
X0129400Y0092158D01*
X0129400Y0095357D02*
X0092400Y0095357D01*
X0092400Y0098555D02*
X0129400Y0098555D01*
X0129400Y0101754D02*
X0092400Y0101754D01*
X0092400Y0104952D02*
X0129400Y0104952D01*
X0129400Y0108151D02*
X0092400Y0108151D01*
X0092400Y0111349D02*
X0129400Y0111349D01*
X0129400Y0114548D02*
X0112266Y0114548D01*
X0113323Y0115605D02*
X0110595Y0112877D01*
X0107029Y0111400D01*
X0103171Y0111400D01*
X0099605Y0112877D01*
X0096877Y0115605D01*
X0095400Y0119171D01*
X0095400Y0123029D01*
X0096877Y0126595D01*
X0099605Y0129323D01*
X0103171Y0130800D01*
X0107029Y0130800D01*
X0110595Y0129323D01*
X0113323Y0126595D01*
X0114800Y0123029D01*
X0114800Y0119171D01*
X0113323Y0115605D01*
X0114210Y0117746D02*
X0129400Y0117746D01*
X0129400Y0120945D02*
X0114800Y0120945D01*
X0114339Y0124143D02*
X0129400Y0124143D01*
X0129400Y0127342D02*
X0112576Y0127342D01*
X0107656Y0130540D02*
X0129400Y0130540D01*
X0129400Y0133739D02*
X0080800Y0133739D01*
X0080800Y0136937D02*
X0129400Y0136937D01*
X0129400Y0140136D02*
X0080800Y0140136D01*
X0080800Y0143334D02*
X0129400Y0143334D01*
X0129400Y0146533D02*
X0080800Y0146533D01*
X0080800Y0149732D02*
X0129400Y0149732D01*
X0129400Y0152930D02*
X0080800Y0152930D01*
X0080800Y0156129D02*
X0129400Y0156129D01*
X0129400Y0159327D02*
X0080800Y0159327D01*
X0080800Y0162526D02*
X0129400Y0162526D01*
X0129400Y0165724D02*
X0080800Y0165724D01*
X0098889Y0172121D02*
X0102138Y0172121D01*
X0105100Y0172121D02*
X0105100Y0172121D01*
X0105100Y0171319D02*
X0105100Y0180100D01*
X0105100Y0171319D01*
X0108062Y0172121D02*
X0111311Y0172121D01*
X0105100Y0175320D02*
X0105100Y0175320D01*
X0105100Y0178518D02*
X0105100Y0178518D01*
X0105100Y0180100D02*
X0105100Y0180100D01*
X0105100Y0181717D02*
X0105100Y0181717D01*
X0105100Y0184915D02*
X0105100Y0184915D01*
X0105100Y0188114D02*
X0105100Y0188114D01*
X0102206Y0188114D02*
X0098854Y0188114D01*
X0097600Y0194511D02*
X0097600Y0194511D01*
X0097600Y0197709D02*
X0097600Y0197709D01*
X0097600Y0200908D02*
X0097600Y0200908D01*
X0093459Y0200908D02*
X0092333Y0200908D01*
X0092552Y0194511D02*
X0093241Y0194511D01*
X0101959Y0194511D02*
X0108241Y0194511D01*
X0107333Y0195418D02*
X0107333Y0197600D01*
X0112600Y0197600D01*
X0112600Y0197600D01*
X0112600Y0202867D01*
X0114782Y0202867D01*
X0117304Y0200345D01*
X0120245Y0203286D01*
X0124955Y0203286D01*
X0128286Y0199955D01*
X0128286Y0195245D01*
X0124955Y0191914D01*
X0120245Y0191914D01*
X0117304Y0194855D01*
X0114782Y0192333D01*
X0112600Y0192333D01*
X0112600Y0197600D01*
X0112600Y0202867D01*
X0110418Y0202867D01*
X0107333Y0199782D01*
X0107333Y0197600D01*
X0112600Y0197600D01*
X0112600Y0197600D01*
X0112600Y0197600D01*
X0112600Y0192333D01*
X0110418Y0192333D01*
X0107333Y0195418D01*
X0107333Y0197709D02*
X0102867Y0197709D01*
X0101741Y0200908D02*
X0108459Y0200908D01*
X0112600Y0200908D02*
X0112600Y0200908D01*
X0112600Y0197709D02*
X0112600Y0197709D01*
X0112600Y0194511D02*
X0112600Y0194511D01*
X0116959Y0194511D02*
X0117648Y0194511D01*
X0117867Y0200908D02*
X0116741Y0200908D01*
X0111346Y0188114D02*
X0107994Y0188114D01*
X0100367Y0210503D02*
X0156880Y0210503D01*
X0156880Y0207305D02*
X0139870Y0207305D01*
X0141728Y0204106D02*
X0156880Y0204106D01*
X0156880Y0200908D02*
X0141651Y0200908D01*
X0140800Y0197709D02*
X0144668Y0197709D01*
X0144414Y0197455D02*
X0147745Y0200786D01*
X0152455Y0200786D01*
X0155786Y0197455D01*
X0155786Y0192745D01*
X0152845Y0189804D01*
X0155367Y0187282D01*
X0155367Y0185100D01*
X0150100Y0185100D01*
X0150100Y0185100D01*
X0150100Y0185100D01*
X0144833Y0185100D01*
X0144833Y0187282D01*
X0147355Y0189804D01*
X0144414Y0192745D01*
X0144414Y0197455D01*
X0144414Y0194511D02*
X0140800Y0194511D01*
X0140800Y0191312D02*
X0145847Y0191312D01*
X0145665Y0188114D02*
X0140800Y0188114D01*
X0140800Y0184915D02*
X0144833Y0184915D01*
X0144833Y0185100D02*
X0144833Y0182918D01*
X0147918Y0179833D01*
X0150100Y0179833D01*
X0152282Y0179833D01*
X0155367Y0182918D01*
X0155367Y0185100D01*
X0150100Y0185100D01*
X0150100Y0179833D01*
X0150100Y0185100D01*
X0150100Y0185100D01*
X0144833Y0185100D01*
X0146035Y0181717D02*
X0140800Y0181717D01*
X0140800Y0178518D02*
X0143223Y0178518D01*
X0150100Y0181717D02*
X0150100Y0181717D01*
X0150100Y0184915D02*
X0150100Y0184915D01*
X0154165Y0181717D02*
X0156880Y0181717D01*
X0156880Y0184915D02*
X0155367Y0184915D01*
X0154535Y0188114D02*
X0156880Y0188114D01*
X0156880Y0191312D02*
X0154353Y0191312D01*
X0155786Y0194511D02*
X0156880Y0194511D01*
X0156880Y0197709D02*
X0155532Y0197709D01*
X0147600Y0216669D02*
X0145143Y0216669D01*
X0142896Y0218916D01*
X0141197Y0217217D01*
X0138863Y0216250D01*
X0136337Y0216250D01*
X0134003Y0217217D01*
X0132217Y0219003D01*
X0131250Y0221337D01*
X0131250Y0223863D01*
X0132217Y0226197D01*
X0134003Y0227983D01*
X0136337Y0228950D01*
X0138863Y0228950D01*
X0141197Y0227983D01*
X0142896Y0226284D01*
X0145143Y0228531D01*
X0147600Y0228531D01*
X0147600Y0222600D01*
X0147600Y0222600D01*
X0147600Y0216669D01*
X0147600Y0216900D02*
X0147600Y0216900D01*
X0144912Y0216900D02*
X0140433Y0216900D01*
X0134767Y0216900D02*
X0122788Y0216900D01*
X0120100Y0216900D02*
X0120100Y0216900D01*
X0120100Y0220099D02*
X0120100Y0220099D01*
X0120100Y0223297D02*
X0120100Y0223297D01*
X0120100Y0226496D02*
X0120100Y0226496D01*
X0124592Y0226496D02*
X0132516Y0226496D01*
X0131250Y0223297D02*
X0126031Y0223297D01*
X0125987Y0220099D02*
X0131763Y0220099D01*
X0142684Y0226496D02*
X0143108Y0226496D01*
X0147600Y0226496D02*
X0147600Y0226496D01*
X0147600Y0223297D02*
X0147600Y0223297D01*
X0147600Y0220099D02*
X0147600Y0220099D01*
X0156880Y0232893D02*
X0005800Y0232893D01*
X0083948Y0130540D02*
X0102544Y0130540D01*
X0097624Y0127342D02*
X0087146Y0127342D01*
X0090345Y0124143D02*
X0095861Y0124143D01*
X0095400Y0120945D02*
X0092400Y0120945D01*
X0092400Y0117746D02*
X0095990Y0117746D01*
X0097934Y0114548D02*
X0092400Y0114548D01*
X0092400Y0079364D02*
X0109833Y0079364D01*
X0109833Y0077600D02*
X0109833Y0075418D01*
X0112918Y0072333D01*
X0115100Y0072333D01*
X0115100Y0077600D01*
X0109833Y0077600D01*
X0109833Y0076166D02*
X0092400Y0076166D01*
X0092400Y0072967D02*
X0112284Y0072967D01*
X0115100Y0072967D02*
X0115100Y0072967D01*
X0117916Y0072967D02*
X0121692Y0072967D01*
X0115100Y0076166D02*
X0115100Y0076166D01*
X0115100Y0079364D02*
X0115100Y0079364D01*
X0140100Y0087600D02*
X0145100Y0092600D01*
X0150100Y0092600D01*
X0150100Y0092600D01*
X0142347Y0092600D01*
X0150100Y0092600D01*
X0143806Y0088960D02*
X0140800Y0088960D01*
X0140800Y0092158D02*
X0142352Y0092158D01*
X0143108Y0095357D02*
X0140800Y0095357D01*
X0140800Y0098555D02*
X0141065Y0098555D01*
X0155644Y0066570D02*
X0156880Y0066570D01*
X0132800Y0024990D02*
X0129727Y0024990D01*
X0131545Y0021791D02*
X0132800Y0021791D01*
X0132800Y0018593D02*
X0131542Y0018593D01*
X0132800Y0015394D02*
X0129713Y0015394D01*
X0133716Y0012196D02*
X0107445Y0012196D01*
X0111991Y0015394D02*
X0120320Y0015394D01*
X0118492Y0018593D02*
X0113300Y0018593D01*
X0113275Y0021791D02*
X0118489Y0021791D01*
X0120307Y0024990D02*
X0111807Y0024990D01*
X0125017Y0018593D02*
X0125017Y0018593D01*
X0125017Y0015394D02*
X0125017Y0015394D01*
X0127552Y0194511D02*
X0129400Y0194511D01*
X0129400Y0197709D02*
X0128286Y0197709D01*
X0128549Y0200908D02*
X0127333Y0200908D01*
X0117412Y0216900D02*
X0112933Y0216900D01*
X0115184Y0226496D02*
X0115608Y0226496D01*
X0095100Y0210503D02*
X0095100Y0210503D01*
D21*
X0127600Y0182600D02*
X0135100Y0182600D01*
X0147600Y0182600D01*
X0150100Y0185100D01*
X0087600Y0162600D02*
X0075100Y0162600D01*
D22*
X0070100Y0170100D02*
X0067600Y0172600D01*
X0022600Y0172600D01*
X0055100Y0145100D02*
X0055100Y0142600D01*
X0057600Y0140100D01*
X0057600Y0117600D01*
X0060100Y0115100D01*
X0062600Y0137600D02*
X0067600Y0137600D01*
X0070100Y0140100D01*
X0070100Y0170100D01*
X0065100Y0165100D02*
X0060100Y0165100D01*
X0065100Y0165100D02*
X0065100Y0145100D01*
D23*
X0060100Y0165100D03*
M02*
